<svg width="256" height="256" viewBox="0 0 256 256" fill="none" xmlns="http://www.w3.org/2000/svg">
<path d="M174.775 80.2049C175.202 83.7888 177.071 87.1208 180.322 90.0992C183.577 93.0817 187.051 94.6461 190.651 94.7477C190.793 94.7517 190.935 94.7518 191.078 94.7518C194.487 94.7518 198.538 93.6303 203.13 91.4157L240.415 73.5085C242.634 72.4236 244.401 71.168 245.669 69.7865C247.335 67.9701 248.119 65.7272 248.005 63.1266C247.892 60.5261 246.892 58.34 245.031 56.6374C241.345 53.2608 237.445 52.5944 233.426 54.6586L227.181 57.8727L208.302 40.575L210.96 34.0736C212.666 29.8924 211.663 26.0647 207.977 22.6881C206.116 20.9855 203.849 20.1769 201.252 20.2907C198.652 20.4045 196.486 21.3837 194.82 23.2C193.556 24.5816 192.463 26.4507 191.569 28.7669L176.986 67.4582C175.105 72.4358 174.361 76.7226 174.775 80.2049ZM179.27 68.3237L193.849 29.6364C194.629 27.6129 195.564 26.0038 196.62 24.8498C197.851 23.5089 199.399 22.814 201.358 22.7287C201.484 22.7246 201.61 22.7206 201.732 22.7206C203.524 22.7206 205.031 23.3016 206.327 24.4881C209.221 27.1415 209.997 29.9737 208.7 33.1553L205.397 41.2292L226.778 60.8227L234.531 56.8284C237.587 55.26 240.48 55.7841 243.373 58.4375C244.759 59.7053 245.474 61.2778 245.559 63.2363C245.644 65.1949 245.088 66.7999 243.861 68.1408C242.8 69.2989 241.276 70.3675 239.342 71.3143L202.065 89.2175C197.632 91.3548 193.808 92.4031 190.712 92.3097C187.717 92.2243 184.771 90.8753 181.959 88.2991C179.148 85.723 177.543 82.903 177.185 79.9124C176.827 76.8283 177.526 72.9274 179.27 68.3237Z" fill="white"/>
<path d="M199.847 55.0081L189.766 79.7255L213.548 67.5638L199.847 55.0081ZM200.781 59.173L209.314 66.9909L194.504 74.565L200.781 59.173Z" fill="white"/>
<path d="M135.102 104.459C128.113 104.459 122.274 106.787 117.748 111.383C113.225 115.975 110.934 121.862 110.934 128.892C110.934 135.922 113.225 141.81 117.748 146.401C122.274 150.997 128.113 153.325 135.102 153.325C142.091 153.325 147.93 150.997 152.457 146.401C156.98 141.81 159.271 135.922 159.271 128.892C159.271 121.867 156.98 115.975 152.457 111.383C147.93 106.791 142.091 104.459 135.102 104.459ZM150.722 144.69C146.671 148.803 141.417 150.887 135.102 150.887C128.788 150.887 123.534 148.803 119.483 144.69C115.428 140.574 113.372 135.259 113.372 128.892C113.372 122.529 115.428 117.214 119.483 113.094C123.534 108.982 128.788 106.897 135.102 106.897C141.413 106.897 146.671 108.982 150.722 113.094C154.777 117.214 156.833 122.529 156.833 128.892C156.833 135.255 154.777 140.57 150.722 144.69Z" fill="white"/>
<path d="M211.227 156.165C213.596 156.165 215.887 155.45 218.078 154.02C221.349 151.883 223.685 148.628 225.018 144.337C226.351 140.05 226.273 136.039 224.79 132.427C223.27 128.729 220.609 126.267 216.875 125.105L204.628 121.298L195.16 151.757L207.407 155.564C208.699 155.966 209.971 156.165 211.227 156.165ZM206.229 124.349L216.147 127.433C219.195 128.38 221.284 130.318 222.531 133.354C223.795 136.43 223.847 139.883 222.685 143.614C221.523 147.348 219.524 150.164 216.741 151.98C213.994 153.772 211.174 154.182 208.126 153.236L198.208 150.152L206.229 124.349Z" fill="white"/>
<path d="M124.451 184.869L110.835 183.512L109.348 198.441L122.964 199.798C123.326 199.834 123.679 199.85 124.029 199.85C125.89 199.85 127.531 199.334 128.929 198.31C130.623 197.067 131.595 195.328 131.814 193.138C132.033 190.952 131.424 189.054 130.006 187.498C128.616 185.982 126.751 185.096 124.451 184.869ZM129.384 192.898C129.234 194.389 128.612 195.519 127.482 196.348C126.312 197.205 124.91 197.543 123.204 197.372L112.013 196.258L113.017 186.181L124.207 187.295C125.914 187.465 127.218 188.071 128.198 189.144C129.144 190.18 129.534 191.407 129.384 192.898Z" fill="white"/>
<path d="M249.789 225.86L241.341 167.945C240.874 164.739 239.606 162.163 237.57 160.269C239.707 157.201 241.402 153.691 242.609 149.806C244.023 145.263 244.6 140.765 244.331 136.442C244.059 132.102 243.007 128.096 241.195 124.532C239.382 120.973 236.794 117.791 233.503 115.081C230.219 112.379 226.315 110.31 221.902 108.937L202.544 102.923C199.708 102.041 197.111 102.236 194.836 103.5C192.576 104.756 190.984 106.832 190.098 109.676L185.766 123.614C185.124 115.942 183.06 108.917 179.598 102.675C175.352 95.0118 169.277 88.9492 161.549 84.6583C157.294 82.2975 152.674 80.5787 147.737 79.5141C147.729 77.198 147.01 75.1663 145.588 73.4597C143.922 71.4646 141.618 70.3065 138.733 70.018L117.457 67.897L117.884 63.6304L137.278 65.5605C139.919 65.8247 142.248 65.1908 144.186 63.6792C146.144 62.1554 147.27 60.0425 147.534 57.4054C147.794 54.7764 147.12 52.4725 145.527 50.5667C143.938 48.6651 141.776 47.568 139.094 47.2998L119.7 45.3656L120.09 41.4486L141.277 43.5615C144.161 43.85 146.648 43.1674 148.66 41.5339C150.675 39.8964 151.841 37.6331 152.122 34.8009C152.357 32.4238 151.898 30.319 150.769 28.5189L152.378 28.458L153.739 65.5524C153.849 68.5309 154.852 70.9567 156.721 72.7567C158.501 74.4715 160.777 75.337 163.503 75.337C163.662 75.337 163.824 75.3329 163.987 75.3289C166.924 75.2232 169.297 74.1789 171.045 72.2326C172.776 70.2984 173.601 67.8076 173.491 64.8291L172.13 27.7347L181.983 27.3731C184.852 27.2674 187.213 26.2557 188.997 24.3703C190.789 22.4767 191.646 20.0712 191.54 17.2269C191.435 14.3825 190.407 12.0461 188.481 10.2867C186.559 8.53534 184.145 7.70235 181.264 7.80394L141.809 9.25049C138.94 9.35614 136.583 10.3679 134.795 12.2533C133.004 14.1468 132.146 16.5524 132.252 19.3967C132.301 20.7335 132.561 21.9485 133.016 23.0537L112.207 20.9814C109.249 20.6889 106.75 21.3959 104.771 23.0944C102.809 24.7766 101.667 27.1333 101.37 30.0955L99.7368 46.5074L95.8888 20.1444C95.3158 16.211 93.6499 13.1635 90.9396 11.0912C88.2212 9.01076 84.9299 8.23872 81.1672 8.78321C77.8962 9.25862 75.3038 10.4858 73.4671 12.4199C71.6833 14.2972 70.0661 17.1862 68.5261 21.2577L55.3527 56.0645L32.7279 26.4873C30.0867 23.0253 27.7097 20.7173 25.4667 19.4292C23.1506 18.1005 20.3184 17.6657 17.0474 18.1452C13.2807 18.6937 10.355 20.376 8.34369 23.1472C6.34045 25.9062 5.61717 29.3032 6.19011 33.2365L14.6013 90.8793C15.1336 94.516 16.6898 97.3848 19.2335 99.4043C21.3017 101.05 23.6626 101.879 26.2753 101.879C26.9011 101.879 27.539 101.83 28.1932 101.737C31.6105 101.237 34.2923 99.5912 36.1615 96.8403C38.0062 94.126 38.6807 90.9606 38.1687 87.4417L34.9668 65.5077L45.4869 79.6279C48.5913 83.7888 51.0252 86.4137 52.9228 87.653C54.9301 88.9655 57.3478 89.4246 60.1028 89.0264C62.8984 88.6201 65.0966 87.4824 66.6448 85.6539C68.1076 83.9229 69.6882 80.7128 71.4802 75.8368L77.5264 59.303L80.7284 81.2329C81.2404 84.7558 82.7926 87.5921 85.3362 89.6684C87.9124 91.7692 90.9518 92.5819 94.3731 92.0821C97.7498 91.5904 100.415 89.9773 102.293 87.2914C102.61 86.8363 102.89 86.3649 103.142 85.8773C103.93 86.1374 104.775 86.3243 105.69 86.4178H105.694C99.3345 90.5502 94.2472 96.0114 90.5495 102.687C89.7572 104.114 89.042 105.585 88.3959 107.092C86.222 105.162 83.463 104.183 80.1839 104.183C77.0592 104.183 74.4667 104.975 72.4798 106.535C70.5578 108.047 68.6561 110.522 66.6651 114.11L49.7534 144.585L32.7929 114.11C30.8019 110.526 28.9002 108.047 26.9783 106.535C24.9913 104.975 22.4029 104.183 19.2782 104.183C15.6821 104.183 12.7118 105.357 10.4485 107.677C8.19741 109.985 7.0556 113.061 7.0556 116.82V171.578C7.0556 175.052 8.12427 177.949 10.2291 180.188C10.7898 180.785 11.3912 181.301 12.0292 181.74C10.1438 182.768 8.74596 184.215 7.87234 186.076C6.76304 188.437 6.70615 190.988 7.69761 193.658C8.68907 196.328 10.3997 198.221 12.7849 199.286C15.1579 200.346 17.7382 200.371 20.4566 199.363L40.4971 191.911L41.9924 195.929L23.7154 202.711C21.2245 203.638 19.4163 205.226 18.3396 207.441C17.2506 209.672 17.1693 212.065 18.0917 214.548C19.0141 217.026 20.6313 218.794 22.9027 219.81C25.166 220.817 27.5918 220.854 30.1152 219.915L48.38 213.121L49.7534 216.811L29.7982 224.235C27.0798 225.247 25.1497 226.949 24.0608 229.302C22.9677 231.658 22.919 234.206 23.9104 236.872C24.9019 239.537 26.6044 241.435 28.9693 242.504C30.1842 243.052 31.452 243.328 32.7685 243.328C34.016 243.328 35.3 243.085 36.6247 242.593L65.8402 231.728C68.6236 230.691 70.5618 228.952 71.5899 226.559C72.6098 224.186 72.6017 221.565 71.5655 218.774L55.7184 176.165C55.5274 175.653 55.308 175.178 55.0723 174.719C55.503 174.459 55.9134 174.162 56.2913 173.829C57.8923 172.411 59.8061 169.635 62.1344 165.332L69.867 151.025V171.57C69.867 174.934 70.9316 177.803 73.0283 180.09C75.1534 182.411 77.8881 183.585 81.1591 183.585C84.3895 183.585 87.1038 182.439 89.2289 180.18C91.3337 177.941 92.4024 175.044 92.4024 171.57V158.002C94.105 160.631 96.0351 163.041 98.1846 165.214C97.3881 165.588 96.6486 166.068 95.9578 166.649C93.7636 168.514 92.4837 171.131 92.1545 174.426L86.9616 226.547C86.6324 229.842 87.372 232.662 89.1558 234.921C90.9518 237.197 93.5076 238.513 96.7543 238.838C100.005 239.164 102.768 238.375 104.979 236.498C107.173 234.633 108.453 232.016 108.782 228.721L109.944 217.039L118.518 217.892L128.843 237.315C130.602 240.622 133.434 242.491 137.262 242.873C137.664 242.914 138.058 242.934 138.452 242.934C140.744 242.934 142.89 242.252 144.84 240.903C147.185 239.277 148.501 237.172 148.753 234.645C149.029 231.882 148.355 229.005 146.758 226.1L140.232 214.117C143.41 212.223 146.031 209.745 148.038 206.738C150.265 203.398 151.61 199.501 152.044 195.153C152.682 188.737 151.24 183.073 147.77 178.258C152.699 177.189 157.306 175.474 161.557 173.118C167.607 169.757 172.638 165.3 176.579 159.839C176.701 160.184 176.847 160.525 177.01 160.863C177.737 162.325 178.802 163.512 180.195 164.41C179.809 164.434 179.419 164.471 179.021 164.532C175.206 165.088 172.333 166.742 170.476 169.453C168.639 172.13 168.009 175.531 168.599 179.562L177.054 237.534C177.579 241.138 179.106 243.95 181.585 245.888C183.56 247.428 185.896 248.204 188.562 248.204C189.273 248.204 190.004 248.148 190.756 248.038C194.307 247.518 197.05 245.945 198.903 243.361C200.748 240.793 201.414 237.66 200.89 234.052L197.014 207.473L225.612 234.706C228.362 237.331 230.703 239.062 232.771 239.992C234.9 240.951 237.233 241.256 239.703 240.895C243.344 240.362 246.119 238.7 247.952 235.949C249.752 233.243 250.37 229.85 249.789 225.86ZM136.563 13.9355C137.916 12.5093 139.659 11.7738 141.894 11.6926L181.349 10.246C183.588 10.1648 185.38 10.7702 186.831 12.0948C188.277 13.4154 189.017 15.1261 189.098 17.3244C189.179 19.5227 188.566 21.2821 187.217 22.7043C185.868 24.1305 184.121 24.866 181.886 24.9473L169.594 25.3983L171.045 64.9307C171.13 67.2915 170.533 69.1525 169.22 70.6194C167.916 72.0741 166.173 72.8218 163.889 72.903C161.61 72.9884 159.814 72.3667 158.408 71.0136C156.99 69.6483 156.258 67.836 156.173 65.4752L154.722 25.9428L148.668 26.1663C147.193 24.996 145.368 24.2971 143.215 24.0818L135.913 23.3544C135.149 22.237 134.739 20.9083 134.682 19.3195C134.604 17.1172 135.218 15.3577 136.563 13.9355ZM141.833 26.3897C141.337 26.3816 140.866 26.3329 140.419 26.2475L141.833 26.3897ZM100.293 85.8895C98.7941 88.035 96.7461 89.2702 94.0237 89.6644C91.2647 90.0667 88.9323 89.449 86.8803 87.7749C84.7958 86.0764 83.5727 83.8172 83.142 80.8753L78.5504 49.4046L69.1925 74.9916C67.5265 79.5304 66.0434 82.586 64.7878 84.0732C63.6176 85.4547 61.9719 86.2837 59.7533 86.6087C57.5753 86.9257 55.7753 86.6006 54.2597 85.6092C52.6262 84.5446 50.3344 82.0375 47.4454 78.1651L31.1676 56.3164L35.7592 87.7871C36.1899 90.729 35.6617 93.2401 34.1501 95.4669C32.6588 97.657 30.5987 98.9167 27.8438 99.3189C25.1213 99.7171 22.8011 99.1198 20.7532 97.4904C18.6849 95.8448 17.4619 93.5652 17.0149 90.5218L8.60374 32.883C8.11614 29.5551 8.67688 26.8367 10.3185 24.5775C11.952 22.3264 14.2681 21.0139 17.4009 20.5548C20.1193 20.1606 22.4232 20.4897 24.2558 21.5422C26.1859 22.6515 28.3842 24.8132 30.7938 27.9663L56.08 61.038L70.8057 22.1273C72.2116 18.4174 73.6988 15.7194 75.2347 14.1021C76.6853 12.5703 78.8023 11.5951 81.5207 11.2009C84.6536 10.7417 87.2501 11.3431 89.4605 13.0294C91.6791 14.7279 92.9916 17.17 93.4751 20.4979L98.7331 56.5439L96.8599 75.3329C96.5633 78.2992 97.2216 80.8347 98.8103 82.8664C99.4158 83.6425 100.127 84.2967 100.935 84.8249C100.744 85.1947 100.533 85.5482 100.293 85.8895ZM101.797 82.4479C101.407 82.135 101.049 81.7815 100.732 81.3711C99.5255 79.827 99.0501 77.9294 99.2857 75.5767L100.188 66.5236L101.882 78.1407C102.11 79.7092 102.081 81.1354 101.797 82.4479ZM104.02 83.6019C104.507 81.8221 104.601 79.8798 104.296 77.7953L101.187 56.4952L103.792 30.3475C104.028 27.9948 104.865 26.2313 106.352 24.9554C107.595 23.8908 109.095 23.3666 110.915 23.3666C111.252 23.3666 111.602 23.3829 111.959 23.4194L134.645 25.6787C134.852 25.9103 135.076 26.1338 135.311 26.3491C137.229 28.1004 139.647 28.9415 142.528 28.8318L147.778 28.6408C147.916 28.7831 148.054 28.9253 148.18 29.0797C149.424 30.5831 149.919 32.3791 149.7 34.5693C149.48 36.7594 148.639 38.4214 147.128 39.6485C145.612 40.8797 143.78 41.3673 141.524 41.1438L117.912 38.7911L117.039 47.5598L138.859 49.7337C140.911 49.9369 142.479 50.7252 143.662 52.1352C144.836 53.5411 145.311 55.1908 145.112 57.1697C144.917 59.1445 144.125 60.6479 142.695 61.7654C141.244 62.895 139.554 63.346 137.526 63.1428L115.706 60.9689L114.796 70.0871L138.497 72.4479C140.752 72.6714 142.463 73.5166 143.723 75.0241C144.686 76.1781 145.202 77.5027 145.291 79.0468C142.024 78.4942 138.627 78.2098 135.112 78.2098C125.507 78.2098 116.815 80.2658 109.253 84.3129L105.933 83.9838C105.234 83.9147 104.605 83.7847 104.02 83.6019ZM145.1 81.4889C144.751 83.2036 143.95 84.5527 142.662 85.5888C141.13 86.82 139.285 87.3076 137.03 87.0842L113.885 84.7762C120.24 82.0375 127.355 80.6478 135.104 80.6478C138.566 80.6519 141.902 80.9322 145.1 81.4889ZM69.2819 219.623C70.1068 221.837 70.1271 223.792 69.351 225.592C68.583 227.376 67.1568 228.631 64.991 229.44L35.7754 240.305C33.6544 241.094 31.7568 241.09 29.977 240.285C28.2013 239.48 26.9661 238.087 26.1981 236.023C25.4301 233.958 25.4545 232.097 26.2753 230.326C27.0961 228.554 28.5264 227.307 30.6515 226.518L52.8944 218.245L49.8225 209.985L29.2659 217.632C27.3358 218.351 25.5764 218.335 23.8982 217.587C22.2241 216.839 21.0742 215.568 20.3794 213.703C19.6886 211.841 19.7373 210.143 20.5338 208.514C21.3383 206.86 22.6589 205.714 24.5687 205.003L45.1212 197.36L41.9274 188.77L19.6033 197.071C17.4781 197.864 15.5724 197.855 13.7764 197.055C11.9885 196.254 10.7492 194.865 9.98122 192.805C9.21325 190.74 9.24575 188.879 10.0787 187.108C10.9117 185.328 12.3502 184.081 14.4794 183.288L14.9263 183.122C15.9787 183.435 17.1002 183.593 18.2989 183.593C21.5699 183.593 24.3046 182.419 26.4297 180.099C26.9336 179.55 27.3765 178.965 27.7584 178.351L42.2849 172.951C42.5897 173.288 42.8822 173.585 43.1667 173.837C44.8692 175.344 47.0716 176.104 49.7087 176.104C50.8383 176.104 51.8785 175.958 52.8415 175.69C53.061 176.104 53.2641 176.543 53.4429 177.023L69.2819 219.623ZM29.1075 175.239C29.4244 174.093 29.5829 172.87 29.5829 171.57V151.025L37.3154 165.332C38.5548 167.624 39.6763 169.477 40.6962 170.928L29.1075 175.239ZM44.8448 172.057C46.5758 171.618 48.1362 171.744 49.5868 172.447C50.1841 172.74 50.7205 173.11 51.2081 173.548C50.7327 173.617 50.2329 173.654 49.7006 173.654C47.6811 173.658 46.0923 173.13 44.8448 172.057ZM89.9644 171.57C89.9644 174.442 89.1436 176.714 87.4532 178.51C85.7832 180.285 83.7271 181.147 81.1591 181.147C78.5626 181.147 76.4944 180.261 74.8243 178.441C73.1299 176.592 72.305 174.341 72.305 171.565V141.379L59.9931 164.162C57.8313 168.152 56.0435 170.785 54.6782 171.992C54.3856 172.252 54.0727 172.476 53.7395 172.671C52.8781 171.643 51.846 170.826 50.6514 170.245C48.3475 169.123 45.7957 169.058 43.0651 170.042C42.0168 168.624 40.8099 166.657 39.4568 164.162L27.1449 141.375V171.561C27.1449 173.374 26.7873 174.958 26.0681 176.36L14.8938 180.517C13.817 180.078 12.854 179.412 12.0007 178.502C10.3104 176.706 9.48955 174.434 9.48955 171.561V116.812C9.48955 113.671 10.3713 111.237 12.1917 109.372C13.9999 107.515 16.3201 106.613 19.2741 106.613C21.8381 106.613 23.9226 107.23 25.4707 108.445C27.1083 109.733 28.8555 112.033 30.6597 115.288L49.7575 149.595L68.7984 115.288C70.6025 112.037 72.3497 109.737 73.9873 108.449C75.5313 107.234 77.6158 106.617 80.1839 106.617C83.138 106.617 85.4581 107.519 87.2663 109.376C87.3232 109.433 87.372 109.498 87.4248 109.559C85.2631 115.475 84.166 121.952 84.166 128.9C84.166 136.19 85.4256 143.041 87.9124 149.27C88.5341 150.83 89.2208 152.338 89.9685 153.792V171.57H89.9644ZM89.9644 147.815C87.7336 142.021 86.5999 135.662 86.5999 128.892C86.5999 122.919 87.441 117.324 89.103 112.155C89.6718 113.5 89.9644 115.04 89.9644 116.808V147.815ZM149.61 194.914C149.216 198.859 148.001 202.382 146.002 205.385C144.003 208.388 141.313 210.805 138.005 212.569L136.921 213.15L144.613 227.27C145.97 229.737 146.547 232.138 146.319 234.401C146.14 236.209 145.198 237.68 143.442 238.899C141.622 240.159 139.68 240.667 137.498 240.452C134.491 240.151 132.361 238.753 130.988 236.173L120.05 215.6L107.754 214.373L106.348 228.481C106.08 231.167 105.113 233.182 103.394 234.645C101.687 236.096 99.5946 236.677 96.9899 236.417C94.3894 236.157 92.4512 235.177 91.0615 233.418C89.6637 231.646 89.1151 229.476 89.3793 226.795L94.5804 174.67C94.8486 171.988 95.8156 169.973 97.5344 168.506C98.3146 167.843 99.1801 167.372 100.135 167.067C104.186 170.688 108.997 173.617 114.475 175.791C120.789 178.298 127.729 179.57 135.104 179.57C138.554 179.57 141.882 179.298 145.088 178.766C148.753 183.317 150.24 188.615 149.61 194.914ZM103.483 166.71C103.634 166.718 103.784 166.722 103.938 166.738L124.808 168.819C132.459 169.583 138.611 172.203 143.121 176.604C140.529 176.958 137.859 177.136 135.104 177.136C128.038 177.136 121.403 175.921 115.373 173.528C110.923 171.76 106.941 169.473 103.483 166.71ZM176.603 153.089C176.262 154.191 176.071 155.259 176.034 156.291C172.121 162.443 166.863 167.384 160.362 170.988C155.982 173.422 151.187 175.133 146.035 176.12C145.892 175.962 145.754 175.799 145.608 175.641C140.626 170.363 133.711 167.246 125.047 166.385L104.178 164.304C102.996 164.186 101.878 164.219 100.83 164.394C100.558 164.134 100.289 163.874 100.025 163.609C97.0265 160.598 94.4788 157.092 92.3983 153.158V116.808C92.3983 113.784 91.6588 111.204 90.196 109.108C90.9152 107.299 91.7401 105.548 92.6747 103.862C96.6893 96.6168 102.431 90.8793 109.737 86.816L136.786 89.51C137.213 89.5506 137.636 89.575 138.046 89.575C140.399 89.575 142.463 88.8761 144.186 87.4905C145.921 86.0968 147.022 84.2398 147.485 81.9643C152.085 82.9842 156.392 84.5933 160.358 86.7957C167.684 90.8631 173.438 96.6046 177.461 103.862C181.496 111.139 183.54 119.563 183.54 128.892C183.54 129.554 183.527 130.213 183.507 130.867L176.603 153.089ZM179.188 159.778C178.753 158.904 178.513 157.978 178.472 156.994C178.863 156.364 179.24 155.726 179.602 155.068C183.487 148.039 185.608 140.046 185.937 131.285L192.43 110.4C193.133 108.145 194.307 106.584 196.022 105.629C197.717 104.687 199.614 104.561 201.825 105.247L221.178 111.265C225.291 112.545 228.915 114.459 231.954 116.962C234.986 119.457 237.367 122.374 239.025 125.637C240.683 128.9 241.65 132.586 241.902 136.592C242.153 140.619 241.609 144.82 240.284 149.079C239.159 152.699 237.59 155.958 235.62 158.807C233.34 157.457 230.662 156.998 227.639 157.437C224.088 157.957 221.345 159.53 219.492 162.114C217.802 164.471 217.103 167.303 217.404 170.541C216.684 170.655 215.957 170.753 215.217 170.818C211.296 171.155 207.221 170.68 203.109 169.4L183.755 163.382C181.54 162.695 180.049 161.517 179.188 159.778ZM221.467 163.536C222.942 161.48 225.071 160.277 227.985 159.851C230.358 159.501 232.385 159.802 234.136 160.765C231.747 163.695 229 166.023 225.953 167.677C224.039 168.717 221.979 169.505 219.801 170.05C219.61 167.506 220.154 165.365 221.467 163.536ZM221.528 199.022L193.791 171.48C192.304 169.997 190.951 168.774 189.72 167.791L202.381 171.724C205.876 172.809 209.35 173.357 212.751 173.357C213.645 173.357 214.539 173.321 215.421 173.244C216.201 173.179 216.965 173.073 217.725 172.955L221.528 199.022ZM245.916 234.6C244.461 236.782 242.312 238.05 239.346 238.485C237.342 238.777 235.465 238.538 233.767 237.77C231.979 236.965 229.801 235.34 227.286 232.938L193.576 200.838L198.472 234.405C198.911 237.408 198.403 239.875 196.92 241.943C195.445 243.999 193.312 245.202 190.403 245.628C187.457 246.059 185.059 245.515 183.08 243.966C181.081 242.406 179.899 240.187 179.46 237.181L171.004 179.209C170.508 175.804 171.004 172.988 172.483 170.83C173.958 168.676 176.213 167.405 179.371 166.945C179.968 166.856 180.553 166.815 181.118 166.815C182.572 166.815 183.913 167.104 185.124 167.677C186.896 168.518 189.236 170.379 192.073 173.211L224.998 205.905L220.122 172.492C222.601 171.899 224.941 171.005 227.119 169.822C230.475 168.002 233.486 165.442 236.091 162.232C237.619 163.731 238.553 165.726 238.927 168.299L247.375 226.214C247.871 229.586 247.379 232.41 245.916 234.6Z" fill="white"/>
</svg>
