<svg width="800" height="550" viewBox="0 0 800 550" fill="none" xmlns="http://www.w3.org/2000/svg">
<path d="M263.692 330.013C248.394 329.627 236.955 321.392 236.038 307.162C234.646 285.448 234.784 263.541 235.935 241.806C236.59 229.595 245.396 222.077 257.573 219.741C262.845 218.728 268.358 218.748 273.76 218.666C283.994 218.514 294.234 218.624 304.543 218.624C304.543 208.15 304.543 198.812 304.543 189.441C286.874 189.441 269.736 188.297 252.818 189.695C224.275 192.066 204.367 210.548 201.727 238.864C199.612 261.529 199.343 284.69 201.459 307.334C204.484 339.77 223.559 357.074 256.216 359.61C271.631 360.809 287.205 359.948 302.71 359.954C303.378 359.954 304.047 359.307 304.826 358.9C304.826 349.666 304.826 340.487 304.826 330.075C290.506 330.081 277.089 330.35 263.692 330.013Z" fill="white"/>
<path d="M440.14 196.918C440.14 194.444 439.933 191.97 439.829 189.62C428.246 189.62 417.557 189.62 406.704 189.62C406.704 246.534 406.704 302.786 406.704 360.21C415.814 360.21 424.069 359.776 432.249 360.341C439.023 360.809 440.305 358.094 440.277 351.954C440.057 300.278 440.153 248.601 440.14 196.918Z" fill="white"/>
<path d="M338.282 359.727C349.377 359.727 359.844 359.727 370.719 359.727C370.719 302.779 370.719 246.313 370.719 189.406C359.796 189.406 349.322 189.406 338.282 189.406C338.282 246.589 338.282 303.041 338.282 359.727Z" fill="white"/>
<path d="M600 273.422C600 273.277 600 273.133 600 272.995H599.993C599.959 261.307 599.511 249.62 598.642 238.015C596.72 212.305 578.961 192.748 553.485 190.267C527.96 187.779 502.001 189.722 475.65 189.722C475.65 217.321 475.65 245.127 475.65 272.995C475.65 273.284 475.65 273.567 475.65 273.856C475.65 301.731 475.65 329.53 475.65 357.129C502.001 357.129 527.96 359.072 553.485 356.584C578.961 354.103 596.72 334.546 598.642 308.836C599.511 297.231 599.959 285.544 599.993 273.856H600C600 273.711 600 273.567 600 273.422ZM539.689 328.262C529.924 328.889 520.084 328.386 509.34 328.386C509.34 310.138 509.34 292.069 509.34 273.856C509.34 273.567 509.34 273.284 509.34 272.995C509.34 254.782 509.34 236.713 509.34 218.465C520.084 218.465 529.924 217.962 539.689 218.589C552.961 219.437 563.642 227.975 564.421 241.013C565.062 251.791 565.331 262.603 565.331 273.429C565.331 284.248 565.069 295.067 564.421 305.845C563.636 318.876 552.961 327.414 539.689 328.262Z" fill="white"/>
</svg>
