<svg width="56" height="56" viewBox="0 0 56 56" fill="none" xmlns="http://www.w3.org/2000/svg">
<mask id="mask0" mask-type="alpha" maskUnits="userSpaceOnUse" x="0" y="0" width="56" height="56">
<circle cx="28" cy="28" r="28" fill="#C4C4C4"/>
</mask>
<g mask="url(#mask0)">
<rect x="-7" y="-5.44446" width="70" height="66.8889" fill="#9262FF"/>
<g style="mix-blend-mode:luminosity">
<path fill-rule="evenodd" clip-rule="evenodd" d="M25.514 31.0378L13.5959 22.8414L14.3647 21.7235L26.2827 29.92L25.514 31.0378Z" fill="#E36952"/>
<path fill-rule="evenodd" clip-rule="evenodd" d="M25.78 30.6513L13.8615 22.4548L14.0987 22.1103L26.0172 30.3068L25.78 30.6513Z" fill="#E05249"/>
<path fill-rule="evenodd" clip-rule="evenodd" d="M25.514 31.0378L13.5959 22.8414L13.8612 22.455L25.7803 30.6514L25.514 31.0378Z" fill="#CE3C32"/>
<path fill-rule="evenodd" clip-rule="evenodd" d="M25.808 31.24L25.5141 31.0376L26.2828 29.9197L26.5767 30.1221L25.808 31.24Z" fill="#797A76"/>
<path fill-rule="evenodd" clip-rule="evenodd" d="M26.1369 31.4664L25.8077 31.24L26.5765 30.1221L26.9056 30.3486C27.1096 30.4886 27.1612 30.7677 27.0207 30.9711L26.76 31.3509C26.6194 31.5548 26.3408 31.6065 26.1369 31.4664Z" fill="#DE8582"/>
<path fill-rule="evenodd" clip-rule="evenodd" d="M14.3645 21.7237L11.884 20.841L13.5957 22.8416L14.3645 21.7237Z" fill="#DECFA6"/>
<path fill-rule="evenodd" clip-rule="evenodd" d="M13.8613 22.4549L13.5955 22.8414L11.8842 20.8413L13.8613 22.4549Z" fill="#CBBA90"/>
<path fill-rule="evenodd" clip-rule="evenodd" d="M12.4083 21.4539L12.6434 21.1115L11.8844 20.8411L12.4083 21.4539Z" fill="#464744"/>
<path fill-rule="evenodd" clip-rule="evenodd" d="M40.5753 28.458H16.0574L17.1482 18.1347H39.4846L40.5753 28.458Z" fill="#1D1916"/>
<path fill-rule="evenodd" clip-rule="evenodd" d="M19.959 28.9881C20.9956 30.7842 20.6746 32.9105 19.2424 33.7375C17.8097 34.5651 15.8076 33.78 14.7705 31.9833C13.7334 30.1877 14.0544 28.0614 15.4871 27.2339C16.9203 26.4069 18.9224 27.192 19.959 28.9881Z" fill="#F8CEA5"/>
<path fill-rule="evenodd" clip-rule="evenodd" d="M19.4582 29.6246C20.1513 30.8257 19.8441 32.3018 18.7707 32.9213C17.6979 33.5413 16.2657 33.0696 15.5716 31.8684C14.878 30.6667 15.1862 29.1906 16.2591 28.5711C17.3324 27.9516 18.7646 28.4229 19.4582 29.6246Z" fill="#ECAA7D"/>
<path fill-rule="evenodd" clip-rule="evenodd" d="M36.6725 28.9881C35.6354 30.7842 35.9564 32.9105 37.3891 33.7375C38.8218 34.5651 40.8239 33.78 41.8604 31.9833C42.898 30.1877 42.577 28.0614 41.1443 27.2339C39.7111 26.4069 37.709 27.192 36.6725 28.9881Z" fill="#F8CEA5"/>
<path fill-rule="evenodd" clip-rule="evenodd" d="M37.1732 29.6246C36.4796 30.8257 36.7872 32.3018 37.8606 32.9213C38.9335 33.5413 40.3657 33.0696 41.0598 31.8684C41.7529 30.6667 41.4452 29.1906 40.3723 28.5711C39.2989 27.9516 37.8668 28.4229 37.1732 29.6246Z" fill="#ECAA7D"/>
<mask id="mask1" mask-type="alpha" maskUnits="userSpaceOnUse" x="-7" y="0" width="78" height="257">
<path d="M-6.22223 256.435H70.8188V0H-6.22223V256.435Z" fill="white"/>
</mask>
<g mask="url(#mask1)">
<path fill-rule="evenodd" clip-rule="evenodd" d="M25.2103 55.6994H28.3169V38.667H25.2103V55.6994Z" fill="#F8CEA5"/>
<path fill-rule="evenodd" clip-rule="evenodd" d="M28.3169 55.6994H31.4235V38.667H28.3169V55.6994Z" fill="#ECAA7D"/>
<path fill-rule="evenodd" clip-rule="evenodd" d="M31.4234 49.4965L25.2101 45.0721V43.5515H31.4234V49.4965Z" fill="#D4805C"/>
<path fill-rule="evenodd" clip-rule="evenodd" d="M39.637 17.6968C39.637 7.00503 16.996 7.00503 16.996 17.6968L18.1021 33.9906L24.9492 43.2135H32.2297L38.5309 33.9906L39.637 17.6968Z" fill="#F8CEA5"/>
</g>
<mask id="mask2" mask-type="alpha" maskUnits="userSpaceOnUse" x="16" y="9" width="24" height="35">
<path d="M16.996 17.6969L18.1021 33.9907L24.9492 43.2135H32.2297L38.5309 33.9907L39.637 17.6969C39.637 12.3509 33.9767 9.67773 28.3165 9.67773C22.6562 9.67773 16.996 12.3509 16.996 17.6969Z" fill="white"/>
</mask>
<g mask="url(#mask2)">
<path fill-rule="evenodd" clip-rule="evenodd" d="M28.3169 44.5189H47.0166V0H28.3169V44.5189Z" fill="#ECAA7D"/>
<path fill-rule="evenodd" clip-rule="evenodd" d="M39.3211 45.3418H17.3103L16.7573 23.2472L22.0132 34.2881L22.049 36.9613L28.317 41.2006L35.322 36.9613L34.6182 34.2881L39.8741 23.2472L39.3211 45.3418Z" fill="#ECAA7D"/>
<path fill-rule="evenodd" clip-rule="evenodd" d="M33.5118 34.2879H23.119L24.5139 32.6287H32.1185L33.5118 34.2879Z" fill="#4F4238"/>
</g>
<path fill-rule="evenodd" clip-rule="evenodd" d="M31.6994 37.5139H24.9315C24.4449 37.5139 24.0504 37.1193 24.0504 36.6327V35.3017H32.5811V36.6327C32.5811 37.1193 32.186 37.5139 31.6994 37.5139Z" fill="#E1796A"/>
<mask id="mask3" mask-type="alpha" maskUnits="userSpaceOnUse" x="-7" y="0" width="78" height="257">
<path d="M-6.22223 256.435H70.8188V0H-6.22223V256.435Z" fill="white"/>
</mask>
<g mask="url(#mask3)">
<path fill-rule="evenodd" clip-rule="evenodd" d="M23.1193 35.3017H33.5121V34.7487H23.1193V35.3017Z" fill="#AC665E"/>
<path fill-rule="evenodd" clip-rule="evenodd" d="M37.4981 21.2016H29.8715V18.6214H36.4702C37.0381 18.6214 37.4981 19.0819 37.4981 19.6493V21.2016Z" fill="#42372F"/>
<path fill-rule="evenodd" clip-rule="evenodd" d="M29.8712 25.1629H37.4978V15.6713H29.8712V25.1629Z" fill="#D4805C"/>
<path fill-rule="evenodd" clip-rule="evenodd" d="M19.1335 25.1629H26.7595V15.8992H19.1335V25.1629Z" fill="#ECAA7D"/>
<path fill-rule="evenodd" clip-rule="evenodd" d="M26.7593 25.1629C26.7593 23.101 25.0521 21.4296 22.9463 21.4296C20.8404 21.4296 19.1332 23.101 19.1332 25.1629" fill="#ECAA7D"/>
<path fill-rule="evenodd" clip-rule="evenodd" d="M37.4981 25.1629C37.4981 23.101 35.7909 21.4296 33.6851 21.4296C31.5792 21.4296 29.8715 23.101 29.8715 25.1629" fill="#D4805C"/>
<path fill-rule="evenodd" clip-rule="evenodd" d="M19.1334 25.1629C19.1334 23.5594 20.6392 22.2596 22.4976 22.2596C24.3556 22.2596 25.8619 23.5594 25.8619 25.1629" fill="#915235"/>
<path fill-rule="evenodd" clip-rule="evenodd" d="M25.4355 25.1629C25.4355 23.8841 24.126 22.847 22.5109 22.847C20.8957 22.847 19.5862 23.8841 19.5862 25.1629" fill="#FFFFFE"/>
</g>
<mask id="mask4" mask-type="alpha" maskUnits="userSpaceOnUse" x="19" y="22" width="7" height="4">
<path d="M19.5864 25.1629H25.4357C25.4357 23.8841 24.1267 22.847 22.511 22.847C20.8959 22.847 19.5864 23.8841 19.5864 25.1629Z" fill="white"/>
</mask>
<g mask="url(#mask4)">
<path fill-rule="evenodd" clip-rule="evenodd" d="M23.8583 24.5636C23.8583 25.3079 23.2551 25.9115 22.5109 25.9115C21.7667 25.9115 21.1636 25.3079 21.1636 24.5636C21.1636 23.8194 21.7667 23.2163 22.5109 23.2163C23.2551 23.2163 23.8583 23.8194 23.8583 24.5636Z" fill="#765D55"/>
</g>
<mask id="mask5" mask-type="alpha" maskUnits="userSpaceOnUse" x="19" y="22" width="7" height="4">
<path d="M19.5864 25.1629H25.4357C25.4357 23.8841 24.1267 22.847 22.511 22.847C20.8959 22.847 19.5864 23.8841 19.5864 25.1629Z" fill="white"/>
</mask>
<g mask="url(#mask5)">
<path fill-rule="evenodd" clip-rule="evenodd" d="M22.511 23.2162C23.2553 23.2162 23.8584 23.8193 23.8584 24.5635C23.8584 25.3077 23.2553 25.9114 22.511 25.9114" fill="#554037"/>
</g>
<path fill-rule="evenodd" clip-rule="evenodd" d="M30.7695 25.1629C30.7695 23.5594 32.2758 22.2596 34.1338 22.2596C35.9917 22.2596 37.498 23.5594 37.498 25.1629" fill="#915235"/>
<path fill-rule="evenodd" clip-rule="evenodd" d="M26.7594 25.1628C26.7594 26.4417 25.0522 27.4788 22.9463 27.4788C20.8405 27.4788 19.1333 26.4417 19.1333 25.1628" fill="#ECAA7D"/>
<path fill-rule="evenodd" clip-rule="evenodd" d="M31.1958 30.0748C31.1958 31.1119 29.9068 31.9521 28.3166 31.9521C26.7265 31.9521 25.4374 31.1119 25.4374 30.0748C25.4374 29.0377 26.7265 28.1974 28.3166 28.1974C29.9068 28.1974 31.1958 29.0377 31.1958 30.0748Z" fill="#C16362"/>
<path fill-rule="evenodd" clip-rule="evenodd" d="M37.4982 25.1628C37.4982 26.4417 35.791 27.4788 33.6851 27.4788C31.5793 27.4788 29.8716 26.4417 29.8716 25.1628" fill="#D4805C"/>
<path fill-rule="evenodd" clip-rule="evenodd" d="M31.1959 25.1629C31.1959 23.884 32.5054 22.8469 34.1205 22.8469C35.7357 22.8469 37.0447 23.884 37.0447 25.1629" fill="#FFFFFE"/>
<mask id="mask6" mask-type="alpha" maskUnits="userSpaceOnUse" x="31" y="22" width="7" height="4">
<path d="M31.1956 25.1629H37.045C37.045 23.8841 35.7355 22.847 34.1203 22.847C32.5051 22.847 31.1956 23.8841 31.1956 25.1629Z" fill="white"/>
</mask>
<g mask="url(#mask6)">
<path fill-rule="evenodd" clip-rule="evenodd" d="M35.472 24.6438C35.472 25.388 34.8684 25.9916 34.1242 25.9916C33.38 25.9916 32.7773 25.388 32.7773 24.6438C32.7773 23.8996 33.38 23.2964 34.1242 23.2964C34.8684 23.2964 35.472 23.8996 35.472 24.6438Z" fill="#765D55"/>
</g>
<mask id="mask7" mask-type="alpha" maskUnits="userSpaceOnUse" x="31" y="22" width="7" height="4">
<path d="M31.1956 25.1629H37.045C37.045 23.8841 35.7355 22.847 34.1203 22.847C32.5051 22.847 31.1956 23.8841 31.1956 25.1629Z" fill="white"/>
</mask>
<g mask="url(#mask7)">
<path fill-rule="evenodd" clip-rule="evenodd" d="M34.1243 23.2963C34.8685 23.2963 35.4721 23.8994 35.4721 24.6436C35.4721 25.3878 34.8685 25.9915 34.1243 25.9915" fill="#554037"/>
</g>
<path fill-rule="evenodd" clip-rule="evenodd" d="M31.1958 30.0748H25.4374L26.7592 18.5734H29.8714L31.1958 30.0748Z" fill="#C16362"/>
<path fill-rule="evenodd" clip-rule="evenodd" d="M27.0708 29.4458L27.5671 18.0814H29.0642L29.5605 29.4458C29.5917 30.1548 29.0249 30.7461 28.3159 30.7461C27.606 30.7461 27.0396 30.1548 27.0708 29.4458Z" fill="#E1796A"/>
<path fill-rule="evenodd" clip-rule="evenodd" d="M19.1334 21.2016H26.7594V18.6214H20.1612C19.5934 18.6214 19.1334 19.0819 19.1334 19.6493V21.2016Z" fill="#1F1916"/>
<path fill-rule="evenodd" clip-rule="evenodd" d="M37.5001 21.2016H29.8735V18.6214H36.4717C37.0401 18.6214 37.5001 19.0819 37.5001 19.6493V21.2016Z" fill="#1C1E18"/>
<path fill-rule="evenodd" clip-rule="evenodd" d="M21.1798 34.4156C22.3626 34.3732 23.1926 33.7281 23.9 32.8684C24.2875 32.3977 24.6504 31.906 25.0567 31.4526C25.6854 30.7493 26.4726 30.4538 27.4013 30.7227C27.7259 30.8167 28.0192 31.0197 28.2835 31.1515C28.6704 30.9936 29.0676 30.7631 29.4938 30.6721C30.3244 30.4952 31.017 30.827 31.5629 31.4475C32.0347 31.9842 32.4656 32.5566 32.9322 33.0979C33.5931 33.8656 34.3981 34.3706 35.4546 34.4509C34.9282 34.5025 34.4033 34.57 33.8758 34.6022C32.7727 34.6696 31.6723 34.641 30.5933 34.3701C29.661 34.1365 28.8238 33.7506 28.3208 32.8147C27.5843 34.0987 26.3371 34.4335 25.0552 34.5332C23.8602 34.6262 22.6488 34.5117 21.4451 34.4836C21.3561 34.4815 21.2682 34.4391 21.1798 34.4156Z" fill="#1A1919"/>
<path fill-rule="evenodd" clip-rule="evenodd" d="M22.0489 36.961L22.0131 34.2878L17.4753 24.7552L18.1019 33.9903L24.949 43.2132H28.3169V41.2009L22.0489 36.961Z" fill="#F8CEA5"/>
<path fill-rule="evenodd" clip-rule="evenodd" d="M38.5308 33.9904L39.1585 24.7507L34.6181 34.2878L35.3219 36.9611L28.3169 41.2009V43.2132H32.2296L38.5308 33.9904Z" fill="#ECAA7D"/>
<mask id="mask8" mask-type="alpha" maskUnits="userSpaceOnUse" x="-7" y="0" width="78" height="257">
<path d="M-6.22223 256.435H70.8188V0H-6.22223V256.435Z" fill="white"/>
</mask>
<g mask="url(#mask8)">
<path fill-rule="evenodd" clip-rule="evenodd" d="M13.006 123.837H43.5593V50.5037H13.006V123.837Z" fill="#E05249"/>
</g>
<mask id="mask9" mask-type="alpha" maskUnits="userSpaceOnUse" x="28" y="50" width="16" height="68">
<path d="M28.2827 50.5037H43.5589V117.394H28.2827V50.5037Z" fill="white"/>
</mask>
<g mask="url(#mask9)">
<path fill-rule="evenodd" clip-rule="evenodd" d="M28.2827 117.394H47.2921V50.5037H28.2827V117.394Z" fill="#E05844"/>
</g>
<mask id="mask10" mask-type="alpha" maskUnits="userSpaceOnUse" x="13" y="50" width="14" height="68">
<path d="M13.0056 50.5037H26.0836V117.047H13.0056V50.5037Z" fill="white"/>
</mask>
<g mask="url(#mask10)">
<path fill-rule="evenodd" clip-rule="evenodd" d="M22.3344 57.1481V50.0168H11.8797V117.047H26.0835V60.8978C24.0129 60.8978 22.3344 59.2187 22.3344 57.1481Z" fill="#E05844"/>
</g>
<mask id="mask11" mask-type="alpha" maskUnits="userSpaceOnUse" x="30" y="50" width="14" height="68">
<path d="M30.474 50.5037H43.5588V117.047H30.474V50.5037Z" fill="white"/>
</mask>
<g mask="url(#mask11)">
<path fill-rule="evenodd" clip-rule="evenodd" d="M34.2237 57.1481V50.0168H44.6784V117.047H30.4741V60.8978C32.5452 60.8978 34.2237 59.2187 34.2237 57.1481Z" fill="#E05844"/>
</g>
<path fill-rule="evenodd" clip-rule="evenodd" d="M6.44391 93.4124H13.0058V50.5036H9.21168C7.6834 50.5036 6.44391 51.7431 6.44391 53.2719V93.4124Z" fill="#CE3C32"/>
<path fill-rule="evenodd" clip-rule="evenodd" d="M50.121 93.4124H43.5591V50.5036H47.3528C48.8815 50.5036 50.121 51.7431 50.121 53.2719V93.4124Z" fill="#E05249"/>
<mask id="mask12" mask-type="alpha" maskUnits="userSpaceOnUse" x="-7" y="0" width="78" height="257">
<path d="M-6.22223 256.435H70.8188V0H-6.22223V256.435Z" fill="white"/>
</mask>
<g mask="url(#mask12)">
<path fill-rule="evenodd" clip-rule="evenodd" d="M22.3346 50.5037H34.2306V45.6863H22.3346V50.5037Z" fill="#E05249"/>
<path fill-rule="evenodd" clip-rule="evenodd" d="M28.2822 50.5037H34.2307V45.6863H28.2822V50.5037Z" fill="#E05844"/>
<path fill-rule="evenodd" clip-rule="evenodd" d="M34.7542 57.6705V49.4945H45.2088V116.525H31.0045V61.4202C33.0756 61.4202 34.7542 59.7411 34.7542 57.6705Z" fill="#413D40"/>
<path fill-rule="evenodd" clip-rule="evenodd" d="M21.8118 57.6705V49.4945H11.3571V116.525H25.5614V61.4202C23.4903 61.4202 21.8118 59.7411 21.8118 57.6705Z" fill="#544F53"/>
<path d="M29.0804 24.4016V23.7724C29.0804 23.5435 28.7365 23.3564 28.3168 23.3564C27.8967 23.3564 27.5527 23.5435 27.5527 23.7724V24.4016" stroke="#FFFFFE" stroke-width="0.657167"/>
<path d="M18.1684 23.176H16.4756" stroke="#FFFFFE" stroke-width="0.657167"/>
<path d="M38.4649 23.176H40.0172" stroke="#FFFFFE" stroke-width="0.657167"/>
<path fill-rule="evenodd" clip-rule="evenodd" d="M36.8782 26.8919H30.7196C29.8144 26.8919 29.0804 26.158 29.0804 25.2528V22.7124C29.0804 21.8072 29.8144 21.0732 30.7196 21.0732H36.8782C37.7834 21.0732 38.5174 21.8072 38.5174 22.7124V25.2528C38.5174 26.158 37.7834 26.8919 36.8782 26.8919Z" stroke="#FFFFFE" stroke-width="0.657167"/>
<path fill-rule="evenodd" clip-rule="evenodd" d="M25.9008 26.8919H19.7422C18.8369 26.8919 18.103 26.158 18.103 25.2528V22.7124C18.103 21.8072 18.8369 21.0732 19.7422 21.0732H25.9008C26.806 21.0732 27.54 21.8072 27.54 22.7124V25.2528C27.54 26.158 26.806 26.8919 25.9008 26.8919Z" stroke="#FFFFFE" stroke-width="0.657167"/>
</g>
</g>
</g>
</svg>
