<svg width="56" height="56" viewBox="0 0 56 56" fill="none" xmlns="http://www.w3.org/2000/svg">
<mask id="mask0" mask-type="alpha" maskUnits="userSpaceOnUse" x="0" y="0" width="56" height="56">
<circle cx="28" cy="28" r="28" fill="#C4C4C4"/>
</mask>
<g mask="url(#mask0)">
<rect x="-7" y="-5.44446" width="70" height="66.8889" fill="#9262FF"/>
<g style="mix-blend-mode:luminosity">
<path fill-rule="evenodd" clip-rule="evenodd" d="M13.4607 122.847H42.8289V52.3597H13.4607V122.847Z" fill="#72BE8D"/>
<mask id="mask1" mask-type="alpha" maskUnits="userSpaceOnUse" x="13" y="52" width="30" height="71">
<path d="M13.4603 52.3597H42.8284V122.847H13.4603V52.3597Z" fill="white"/>
</mask>
<g mask="url(#mask1)">
<path fill-rule="evenodd" clip-rule="evenodd" d="M39.4254 52.3594C39.4254 55.9365 34.3748 58.8363 28.1444 58.8363C21.9145 58.8363 16.864 55.9365 16.864 52.3594" fill="#64B993"/>
<path fill-rule="evenodd" clip-rule="evenodd" d="M28.1441 124.688H46.4161V52.3597H28.1441V124.688Z" fill="#64B993"/>
</g>
<path fill-rule="evenodd" clip-rule="evenodd" d="M37.0829 52.3594C37.0829 54.8275 33.0811 56.8281 28.1444 56.8281C23.2083 56.8281 19.207 54.8275 19.207 52.3594" fill="#F8CEA5"/>
<path fill-rule="evenodd" clip-rule="evenodd" d="M37.0829 52.3594C37.0829 54.8275 33.0811 56.8281 28.1445 56.8281V52.3594H37.0829Z" fill="#ECAA7D"/>
<path fill-rule="evenodd" clip-rule="evenodd" d="M25.3246 55.1797H28.1446V39.7177H25.3246V55.1797Z" fill="#F8CEA5"/>
<path fill-rule="evenodd" clip-rule="evenodd" d="M28.1446 55.1797H30.9651V39.7177H28.1446V55.1797Z" fill="#ECAA7D"/>
<path fill-rule="evenodd" clip-rule="evenodd" d="M40.1088 24.6346C39.4902 24.6346 38.9039 24.7677 38.3722 25.0021L39.4255 15.0747C39.4255 1.79859 16.8635 1.79859 16.8635 15.0747L17.9173 25.0021C17.3857 24.7677 16.7988 24.6346 16.1808 24.6346C13.8036 24.6346 11.8762 26.562 11.8762 28.9387C11.8762 31.3164 13.8036 33.2432 16.1808 33.2432C17.1246 33.2432 17.9947 32.9355 18.7045 32.4204L19.3738 38.7281L24.0975 44.1517H32.1915L36.9152 38.7281L37.585 32.4204C38.2944 32.9355 39.1644 33.2432 40.1088 33.2432C42.4859 33.2432 44.4128 31.3164 44.4128 28.9387C44.4128 26.562 42.4859 24.6346 40.1088 24.6346Z" fill="#F8CEA5"/>
<mask id="mask2" mask-type="alpha" maskUnits="userSpaceOnUse" x="11" y="5" width="34" height="40">
<path d="M16.8636 15.0748L17.9173 25.0022C17.3857 24.7673 16.7988 24.6347 16.1803 24.6347C13.8031 24.6347 11.8757 26.5621 11.8757 28.9388C11.8757 31.3165 13.8031 33.2433 16.1803 33.2433C17.1246 33.2433 17.9947 32.9356 18.7046 32.4205L19.3738 38.7282L24.0975 44.1518H32.1915L36.9148 38.7282L37.5845 32.4205C38.2939 32.9356 39.1644 33.2433 40.1088 33.2433C42.4865 33.2433 44.4128 31.3165 44.4128 28.9388C44.4128 26.5621 42.4865 24.6347 40.1088 24.6347C39.4903 24.6347 38.9034 24.7673 38.3722 25.0022L39.4255 15.0748C39.4255 8.43673 33.785 5.11771 28.1445 5.11771C22.504 5.11771 16.8636 8.43673 16.8636 15.0748Z" fill="white"/>
</mask>
<g mask="url(#mask2)">
<path fill-rule="evenodd" clip-rule="evenodd" d="M28.1436 45.5324H45.1192V5.11771H28.1436V45.5324Z" fill="#ECAA7D"/>
</g>
<path fill-rule="evenodd" clip-rule="evenodd" d="M29.7606 5.20977L28.144 3.88889L26.5274 5.20977C21.4743 5.78511 16.863 9.07251 16.863 15.0745L17.6713 22.691C17.6713 14.2797 20.911 5.41511 28.144 12.6481C35.377 5.41511 38.6167 14.2797 38.6167 22.691L39.425 15.0745C39.425 9.07251 34.8132 5.78511 29.7606 5.20977Z" fill="#915235"/>
<mask id="mask3" mask-type="alpha" maskUnits="userSpaceOnUse" x="16" y="3" width="24" height="20">
<path d="M26.5276 5.21007C21.4745 5.78492 16.8627 9.07281 16.8627 15.0748L17.671 22.6913C17.671 14.28 20.9107 5.41491 28.1441 12.6484C35.3766 5.41491 38.6163 14.28 38.6163 22.6913L39.4246 15.0748C39.4246 9.07281 34.8133 5.78492 29.7607 5.21007L28.1441 3.88919L26.5276 5.21007Z" fill="white"/>
</mask>
<g mask="url(#mask3)">
<path fill-rule="evenodd" clip-rule="evenodd" d="M40.1079 23.5678H28.1442V3.8891L40.1079 2.38297V23.5678Z" fill="#915235"/>
</g>
<mask id="mask4" mask-type="alpha" maskUnits="userSpaceOnUse" x="16" y="3" width="24" height="20">
<path d="M26.5276 5.21007C21.4745 5.78492 16.8627 9.07281 16.8627 15.0748L17.671 22.6913C17.671 14.28 20.9107 5.41491 28.1441 12.6484C35.3766 5.41491 38.6163 14.28 38.6163 22.6913L39.4246 15.0748C39.4246 9.07281 34.8133 5.78492 29.7607 5.21007L28.1441 3.88919" fill="white"/>
</mask>
<g mask="url(#mask4)">
<path d="M28.144 12.6483V3.88907" stroke="#915235" stroke-width="0.645487"/>
</g>
<mask id="mask5" mask-type="alpha" maskUnits="userSpaceOnUse" x="16" y="3" width="24" height="20">
<path d="M26.5276 5.21007C21.4745 5.78492 16.8627 9.07281 16.8627 15.0748L17.671 22.6913C17.671 14.28 20.9107 5.41491 28.1441 12.6484C35.3766 5.41491 38.6163 14.28 38.6163 22.6913L39.4246 15.0748C39.4246 9.07281 34.8133 5.78492 29.7607 5.21007L28.1441 3.88919" fill="white"/>
</mask>
<g mask="url(#mask5)">
<path d="M26.5453 12.6483V3.88907" stroke="#915235" stroke-width="0.645487"/>
</g>
<mask id="mask6" mask-type="alpha" maskUnits="userSpaceOnUse" x="16" y="3" width="24" height="20">
<path d="M26.5276 5.21007C21.4745 5.78492 16.8627 9.07281 16.8627 15.0748L17.671 22.6913C17.671 14.28 20.9107 5.41491 28.1441 12.6484C35.3766 5.41491 38.6163 14.28 38.6163 22.6913L39.4246 15.0748C39.4246 9.07281 34.8133 5.78492 29.7607 5.21007L28.1441 3.88919" fill="white"/>
</mask>
<g mask="url(#mask6)">
<path d="M24.7239 12.6483V3.88907" stroke="#915235" stroke-width="0.645487"/>
</g>
<path fill-rule="evenodd" clip-rule="evenodd" d="M18.1531 27.2258C17.645 26.8482 17.0175 26.6218 16.3357 26.6218C14.6488 26.6218 13.2812 27.9894 13.2812 29.6763C13.2812 31.3626 14.6488 32.7302 16.3357 32.7302C17.2494 32.7302 18.0673 32.3266 18.627 31.6905L18.1531 27.2258Z" fill="#ECAA7D"/>
<path fill-rule="evenodd" clip-rule="evenodd" d="M18.1531 27.2258C17.645 26.8482 17.0175 26.6218 16.3357 26.6218C14.6488 26.6218 13.2812 27.9894 13.2812 29.6763C13.2812 29.7822 13.2868 29.8866 13.2973 29.9901C13.4545 28.4503 14.7543 27.2494 16.3357 27.2494C17.0175 27.2494 17.645 27.4758 18.1531 27.8533" fill="#D4805C"/>
<path fill-rule="evenodd" clip-rule="evenodd" d="M38.1345 27.2258C38.643 26.8482 39.2706 26.6218 39.9519 26.6218C41.6387 26.6218 43.0063 27.9894 43.0063 29.6763C43.0063 31.3626 41.6387 32.7302 39.9519 32.7302C39.0381 32.7302 38.2203 32.3266 37.6605 31.6905L38.1345 27.2258Z" fill="#D4805C"/>
<path fill-rule="evenodd" clip-rule="evenodd" d="M30.0076 38.6708H26.2799C25.1709 38.6708 24.2717 37.7717 24.2717 36.6627H32.0158C32.0158 37.7717 31.1166 38.6708 30.0076 38.6708Z" fill="#E1796A"/>
<path fill-rule="evenodd" clip-rule="evenodd" d="M23.4264 36.6627H32.8608V36.1607H23.4264V36.6627Z" fill="#AC665E"/>
<path fill-rule="evenodd" clip-rule="evenodd" d="M30.1312 32.2908C30.1312 33.3888 29.2416 34.2779 28.1441 34.2779C27.0461 34.2779 26.1565 33.3888 26.1565 32.2908C26.1565 31.1929 27.0461 30.3037 28.1441 30.3037C29.2416 30.3037 30.1312 31.1929 30.1312 32.2908Z" fill="#C16362"/>
<path fill-rule="evenodd" clip-rule="evenodd" d="M31.0622 31.6427C31.0622 32.4741 30.388 33.1483 29.5566 33.1483C28.7252 33.1483 28.051 32.4741 28.051 31.6427C28.051 30.8113 28.7252 30.1371 29.5566 30.1371C30.388 30.1371 31.0622 30.8113 31.0622 31.6427Z" fill="#C16362"/>
<path fill-rule="evenodd" clip-rule="evenodd" d="M28.0509 31.6427C28.0509 30.8113 27.3766 30.1371 26.5452 30.1371C25.7139 30.1371 25.0396 30.8113 25.0396 31.6427C25.0396 32.4741 25.7139 33.1483 26.5452 33.1483C27.3766 33.1483 28.0509 32.4741 28.0509 31.6427Z" fill="#C16362"/>
<path fill-rule="evenodd" clip-rule="evenodd" d="M19.8078 21.4763H26.731V19.1342H22.1498C20.8566 19.1342 19.8078 20.183 19.8078 21.4763Z" fill="#915235"/>
<path fill-rule="evenodd" clip-rule="evenodd" d="M36.4798 23.8183H29.5566V21.4763H34.1377C35.431 21.4763 36.4798 22.5251 36.4798 23.8183Z" fill="#915235"/>
<path fill-rule="evenodd" clip-rule="evenodd" d="M29.5564 27.4587H36.4796V23.8184H29.5564V27.4587Z" fill="#D4805C"/>
<path fill-rule="evenodd" clip-rule="evenodd" d="M19.8077 27.4587H26.7309V21.4763H19.8077V27.4587Z" fill="#ECAA7D"/>
<path fill-rule="evenodd" clip-rule="evenodd" d="M29.5565 32.2908H26.731V19.1342L29.5565 21.4763V32.2908Z" fill="#C16362"/>
<path fill-rule="evenodd" clip-rule="evenodd" d="M28.1439 33.1484C27.7684 33.1484 27.4642 32.8441 27.4642 32.4686V19.7422L28.8237 20.8688V32.4686C28.8237 32.8441 28.519 33.1484 28.1439 33.1484Z" fill="#E1796A"/>
<path fill-rule="evenodd" clip-rule="evenodd" d="M26.731 27.4586C26.731 25.5865 25.1812 24.0698 23.2694 24.0698C21.3576 24.0698 19.8078 25.5865 19.8078 27.4586" fill="#ECAA7D"/>
<path fill-rule="evenodd" clip-rule="evenodd" d="M36.4798 27.4586C36.4798 25.5865 34.93 24.0698 33.0177 24.0698C31.1064 24.0698 29.5566 25.5865 29.5566 27.4586" fill="#D4805C"/>
<path fill-rule="evenodd" clip-rule="evenodd" d="M19.8078 27.4586C19.8078 26.0032 21.1754 24.8229 22.8622 24.8229C24.5486 24.8229 25.9162 26.0032 25.9162 27.4586" fill="#915235"/>
<path fill-rule="evenodd" clip-rule="evenodd" d="M25.5294 27.4586C25.5294 26.2974 24.3406 25.3566 22.8741 25.3566C21.4081 25.3566 20.2193 26.2974 20.2193 27.4586" fill="#FFFFFE"/>
<mask id="mask7" mask-type="alpha" maskUnits="userSpaceOnUse" x="20" y="25" width="6" height="3">
<path d="M20.2193 27.4588H25.5289C25.5289 26.2975 24.3401 25.3567 22.8741 25.3567C21.4076 25.3567 20.2193 26.2975 20.2193 27.4588Z" fill="white"/>
</mask>
<g mask="url(#mask7)">
<path fill-rule="evenodd" clip-rule="evenodd" d="M24.0978 26.9149C24.0978 27.5907 23.5496 28.1384 22.8738 28.1384C22.1985 28.1384 21.6508 27.5907 21.6508 26.9149C21.6508 26.2392 22.1985 25.6914 22.8738 25.6914C23.5496 25.6914 24.0978 26.2392 24.0978 26.9149Z" fill="#517973"/>
</g>
<mask id="mask8" mask-type="alpha" maskUnits="userSpaceOnUse" x="20" y="25" width="6" height="3">
<path d="M20.2193 27.4588H25.5289C25.5289 26.2975 24.3401 25.3567 22.8741 25.3567C21.4076 25.3567 20.2193 26.2975 20.2193 27.4588Z" fill="white"/>
</mask>
<g mask="url(#mask8)">
<path fill-rule="evenodd" clip-rule="evenodd" d="M22.874 25.6917C23.5498 25.6917 24.098 26.2394 24.098 26.9151C24.098 27.5904 23.5498 28.1381 22.874 28.1381" fill="#355557"/>
</g>
<path fill-rule="evenodd" clip-rule="evenodd" d="M30.3714 27.4586C30.3714 26.0032 31.739 24.8229 33.4253 24.8229C35.1122 24.8229 36.4798 26.0032 36.4798 27.4586" fill="#915235"/>
<path fill-rule="evenodd" clip-rule="evenodd" d="M26.7311 27.4586C26.7311 28.6198 25.1813 29.5607 23.2695 29.5607C21.3577 29.5607 19.8079 28.6198 19.8079 27.4586" fill="#ECAA7D"/>
<path fill-rule="evenodd" clip-rule="evenodd" d="M36.4798 27.4586C36.4798 28.6198 34.93 29.5607 33.0177 29.5607C31.1064 29.5607 29.5566 28.6198 29.5566 27.4586" fill="#D4805C"/>
<path fill-rule="evenodd" clip-rule="evenodd" d="M30.7582 27.4586C30.7582 26.2974 31.947 25.3566 33.4135 25.3566C34.8795 25.3566 36.0683 26.2974 36.0683 27.4586" fill="#FFFFFE"/>
<mask id="mask9" mask-type="alpha" maskUnits="userSpaceOnUse" x="30" y="25" width="7" height="3">
<path d="M30.7583 27.4588H36.0684C36.0684 26.2975 34.8796 25.3567 33.4131 25.3567C31.9471 25.3567 30.7583 26.2975 30.7583 27.4588Z" fill="white"/>
</mask>
<g mask="url(#mask9)">
<path fill-rule="evenodd" clip-rule="evenodd" d="M34.6405 26.9875C34.6405 27.6633 34.0923 28.211 33.4165 28.211C32.7413 28.211 32.1935 27.6633 32.1935 26.9875C32.1935 26.3118 32.7413 25.764 33.4165 25.764C34.0923 25.764 34.6405 26.3118 34.6405 26.9875Z" fill="#517973"/>
</g>
<mask id="mask10" mask-type="alpha" maskUnits="userSpaceOnUse" x="30" y="25" width="7" height="3">
<path d="M30.7583 27.4588H36.0684C36.0684 26.2975 34.8796 25.3567 33.4131 25.3567C31.9471 25.3567 30.7583 26.2975 30.7583 27.4588Z" fill="white"/>
</mask>
<g mask="url(#mask10)">
<path fill-rule="evenodd" clip-rule="evenodd" d="M33.4169 25.7642C34.0927 25.7642 34.6409 26.312 34.6409 26.9877C34.6409 27.663 34.0927 28.2107 33.4169 28.2107" fill="#355557"/>
</g>
<path fill-rule="evenodd" clip-rule="evenodd" d="M18.153 27.2258L24.0977 44.1517L19.2068 39.0058L18.153 27.2258Z" fill="#ECAA7D"/>
<path fill-rule="evenodd" clip-rule="evenodd" d="M32.1918 44.1516L38.1345 27.2257L36.915 38.728L32.1918 44.1516Z" fill="#D4805C"/>
<path fill-rule="evenodd" clip-rule="evenodd" d="M30.9651 49.5486L25.3246 45.5323V44.1516H30.9651V49.5486Z" fill="#D4805C"/>
<path fill-rule="evenodd" clip-rule="evenodd" d="M7.15369 74.6509H13.4609V52.3596C9.97719 52.3596 7.15369 55.1831 7.15369 58.6663V74.6509Z" fill="#8AC79B"/>
<path fill-rule="evenodd" clip-rule="evenodd" d="M49.1359 74.6509H42.8287V52.3596C46.3119 52.3596 49.1359 55.1831 49.1359 58.6663V74.6509Z" fill="#72BE8D"/>
<path fill-rule="evenodd" clip-rule="evenodd" d="M38.1344 27.2258C38.643 26.8482 39.2705 26.6218 39.9518 26.6218C41.6387 26.6218 43.0063 27.9894 43.0063 29.6763C43.0063 29.7822 43.0007 29.8866 42.9902 29.9901C42.833 28.4503 41.5333 27.2494 39.9518 27.2494C39.2705 27.2494 38.643 27.4758 38.1344 27.8533" fill="#D4805C"/>
<path d="M21.3963 52.5188C17.7464 52.5188 17.4502 70.615 17.9764 85.4404" stroke="#242424" stroke-width="1.93646"/>
<path d="M33.5112 52.5188C37.1615 52.5188 37.4573 70.615 36.9311 85.4404" stroke="#242424" stroke-width="1.93646"/>
</g>
</g>
</svg>
