<svg width="806" height="550" viewBox="0 0 806 550" fill="none" xmlns="http://www.w3.org/2000/svg">
<path d="M402.286 264.541C403.873 262.633 405.547 261.111 406.634 259.244C410.684 252.303 417.423 249.356 424.5 246.973C435.007 243.439 445.514 239.88 456.142 236.74C464.081 234.389 472.197 232.642 480.264 230.758C481.19 230.54 482.535 230.887 483.316 231.474C490.2 236.627 494.749 243.64 498.187 251.345C500.111 255.653 501.431 260.242 502.913 264.743C503.219 265.66 503.154 266.739 503.066 267.73C502.148 278.945 501.182 290.161 500.24 301.368C499.877 305.708 499.426 310.04 499.193 314.387C499.104 316.127 498.662 317.077 496.778 316.811C494.515 316.489 493.855 317.745 493.412 319.742C491.89 326.666 490.449 333.63 488.388 340.393C487.623 342.906 485.562 345.337 483.485 347.068C479.54 350.345 475.208 353.163 470.925 356.005C469.773 356.77 469.258 357.503 469.185 358.847C468.179 378.589 467.132 398.323 466.086 418.065C465.297 433.057 464.491 448.041 463.735 463.032C463.678 464.151 463.276 464.667 462.213 465.021C458.791 466.172 455.434 467.485 452.012 468.62C451.239 468.878 450.241 468.878 449.476 468.628C445.539 467.34 441.658 465.89 437.737 464.57C436.296 464.087 435.676 463.378 435.659 461.704C435.41 423.5 435.088 385.304 434.774 347.1C434.766 346.199 434.693 345.297 434.645 344.403C434.411 344.331 434.17 344.258 433.936 344.186C433.663 344.79 433.196 345.369 433.155 345.989C432.318 357.615 431.521 369.25 430.756 380.876C430.571 383.621 430.635 383.629 427.874 383.629C410.789 383.629 393.712 383.629 376.627 383.621C373.841 383.621 373.913 383.613 373.728 380.932C372.955 369.298 372.15 357.672 371.313 346.046C371.264 345.401 370.806 344.79 370.54 344.162C370.306 344.226 370.073 344.282 369.847 344.347C369.791 345.031 369.694 345.723 369.694 346.408C369.38 384.676 369.05 422.944 368.817 461.205C368.801 463.282 368.06 464.159 366.224 464.747C362.537 465.923 358.914 467.316 355.234 468.515C354.389 468.789 353.326 468.894 352.513 468.628C349.018 467.493 345.564 466.245 342.151 464.884C341.547 464.642 340.862 463.717 340.822 463.072C339.945 447.485 339.164 431.889 338.342 416.302C337.32 397.027 336.297 377.76 335.186 358.493C335.138 357.688 334.421 356.689 333.721 356.198C330.71 354.089 327.578 352.157 324.518 350.128C318.6 346.207 315.348 340.716 314.236 333.679C313.439 328.671 311.966 323.775 310.847 318.816C310.485 317.197 309.534 316.586 307.964 316.803C305.96 317.077 305.42 316.199 305.267 314.218C304.124 299.726 302.981 285.233 301.523 270.773C300.952 265.089 302.667 260.065 304.671 255.033C308.278 245.967 313.15 237.746 320.903 231.523C321.974 230.661 322.972 230.299 324.381 230.661C333.181 232.932 342.086 234.824 350.79 237.416C361.216 240.524 371.49 244.163 381.788 247.682C384.686 248.672 387.488 249.992 390.258 251.305C391.296 251.796 392.279 252.601 393.027 253.479C395.596 256.482 398.043 259.582 400.547 262.633C400.99 263.229 401.522 263.728 402.286 264.541ZM419.444 317.407C421.167 318.244 422.27 318.864 423.429 319.323C428.751 321.416 434.371 321.642 439.991 321.988C447.712 322.471 454.645 320.337 461.094 316.239C471.19 309.814 478.702 300.918 485.216 291.063C485.594 290.499 485.763 289.67 485.723 288.977C485.514 285.097 485.119 281.224 484.99 277.343C484.926 275.29 484.177 274.654 482.18 274.96C476.697 275.813 471.19 276.538 465.691 277.343C457.744 278.511 449.782 279.533 441.875 280.918C432.97 282.472 424.09 283.188 415.145 281.473C414.637 281.377 414.074 281.248 413.679 280.958C410.209 278.382 406.803 275.725 403.293 273.205C402.81 272.858 401.675 272.826 401.208 273.164C397.689 275.676 394.267 278.325 390.805 280.918C390.499 281.151 390.121 281.401 389.758 281.425C384.3 281.755 378.825 282.359 373.374 282.262C369.187 282.19 365.017 281.264 360.846 280.644C352.77 279.444 344.711 278.164 336.635 276.981C331.676 276.248 326.692 275.652 321.724 274.952C320.146 274.726 319.566 275.346 319.478 276.884C319.261 280.894 318.898 284.903 318.713 288.921C318.673 289.726 318.987 290.66 319.422 291.344C324.26 298.881 330.065 305.571 336.78 311.521C350.001 323.22 365.025 324.307 381.127 319.291C382.335 318.912 383.446 318.204 384.887 317.511C384.831 318.486 384.847 319.073 384.759 319.653C383.937 324.878 383.132 330.104 382.238 335.313C381.949 337.012 382.367 338.308 383.68 339.411C389.058 343.936 394.404 348.501 399.791 353.018C401.385 354.363 402.947 354.403 404.509 353.099C410.008 348.509 415.515 343.92 420.885 339.186C421.69 338.477 422.262 336.947 422.165 335.861C421.867 332.471 421.183 329.113 420.668 325.732C420.273 323.099 419.895 320.482 419.444 317.407Z" fill="white"/>
<path d="M478.912 226.015C477.076 226.514 475.562 226.941 474.04 227.343C464.548 229.847 455.007 232.174 445.579 234.896C434.089 238.213 422.809 242.198 411.932 247.214C410.483 247.883 409.17 249.05 408.067 250.242C406.087 252.391 404.315 254.734 402.254 257.238C401.119 255.886 400.024 254.815 399.203 253.567C396.522 249.501 392.866 246.852 388.269 245.282C377.279 241.538 366.41 237.4 355.331 233.962C346.152 231.12 336.74 229.05 327.433 226.619C326.877 226.474 326.362 226.192 325.364 225.79C327.288 223.294 328.914 220.951 330.782 218.817C336.144 212.682 342.674 208.165 350.057 204.711C366.997 196.788 383.857 188.689 400.789 180.734C401.594 180.356 402.898 180.38 403.72 180.766C421.562 189.14 439.411 197.489 457.157 206.056C465.627 210.146 472.47 216.281 477.776 224.083C478.098 224.574 478.372 225.105 478.912 226.015Z" fill="white"/>
<path d="M302.876 245.532C304.14 241.401 305.267 237.223 306.684 233.149C313.005 214.928 323.133 199.099 337.159 185.879C349.888 173.882 364.606 165.243 381.683 161.016C396.248 157.417 410.837 157.49 425.386 161.298C445.434 166.548 461.899 177.546 475.659 192.795C486.737 205.074 494.894 219.107 500.006 234.856C501.472 239.364 502.542 243.994 503.742 248.583C503.951 249.388 503.919 250.258 504 251.103C503.839 251.152 503.678 251.2 503.517 251.248C503.058 250.266 502.623 249.276 502.148 248.301C498.444 240.677 493.404 234.083 487.051 228.455C485.683 227.239 484.395 225.806 483.452 224.252C476.842 213.375 467.551 205.742 456.11 200.283C439.283 192.264 422.624 183.89 405.942 175.565C403.446 174.317 401.304 174.156 398.752 175.428C380.862 184.325 362.875 193.029 345.001 201.958C334.566 207.167 326.41 214.936 320.549 225.065C320.122 225.806 319.631 226.587 318.979 227.102C312.86 231.949 307.981 237.827 304.213 244.654C303.995 245.041 303.721 245.395 303.472 245.765C303.262 245.701 303.069 245.612 302.876 245.532Z" fill="white"/>
<path d="M404.952 82.0166C407.472 85.205 410 88.3933 412.52 91.5817C416.006 95.9938 419.533 100.366 422.922 104.842C423.542 105.664 423.937 106.911 423.889 107.942C423.252 122.523 422.52 137.096 421.811 151.669C421.618 155.55 421.618 155.534 417.826 155.075C414.774 154.705 411.731 154.318 408.671 154.036C407.287 153.907 406.723 153.416 406.675 151.935C405.926 129.52 405.129 107.105 404.34 84.6897C404.308 83.8523 404.34 83.015 404.34 82.1776C404.541 82.1293 404.742 82.073 404.952 82.0166Z" fill="white"/>
<path d="M402.455 82.2093C402.455 84.4557 402.52 86.7101 402.447 88.9483C401.723 109.826 400.95 130.703 400.249 151.588C400.201 153.134 399.839 153.867 398.164 153.996C394.702 154.261 391.24 154.648 387.802 155.139C385.853 155.421 385.217 154.768 385.137 152.836C384.597 140.26 383.961 127.692 383.366 115.115C383.301 113.779 383.462 112.394 383.172 111.106C382.351 107.475 383.728 104.777 386.031 102.032C390.934 96.1946 395.539 90.1077 400.273 84.1256C400.845 83.4009 401.449 82.7085 402.037 82C402.182 82.0805 402.318 82.1449 402.455 82.2093Z" fill="white"/>
<path d="M471.971 394.715C471.971 393.951 471.939 393.306 471.979 392.654C472.503 382.55 473.066 372.453 473.525 362.341C473.606 360.513 474.322 359.475 475.868 358.541C481.247 355.256 486.408 351.697 490.345 346.616C492.736 343.525 493.469 339.869 494.338 336.23C494.596 335.167 494.974 334.129 495.296 333.082C495.49 333.098 495.675 333.122 495.868 333.138C495.868 335.787 495.771 338.436 495.884 341.077C496.19 348.259 497.068 355.344 500.047 362.011C500.304 362.582 500.441 363.331 500.304 363.919C498.67 371.02 497.011 378.122 495.24 385.183C495.039 385.996 494.25 387.002 493.501 387.292C486.818 389.82 480.087 392.203 473.356 394.611C472.994 394.74 472.575 394.675 471.971 394.715Z" fill="white"/>
<path d="M309.212 333.01C309.728 334.894 310.404 336.754 310.718 338.678C311.757 345.127 315.911 349.394 320.742 353.146C323.375 355.191 326.306 356.85 328.971 358.863C329.816 359.499 330.694 360.682 330.75 361.665C331.434 372.357 331.95 383.057 332.513 393.757C332.529 394.007 332.433 394.265 332.328 394.885C330.227 394.281 328.182 393.806 326.225 393.097C321.145 391.254 316.072 389.361 311.056 387.341C310.283 387.027 309.446 386.076 309.245 385.263C307.441 378.138 305.766 370.98 304.092 363.822C303.979 363.347 304.076 362.744 304.277 362.293C307.884 354.362 308.544 345.924 308.705 337.39C308.729 335.949 308.705 334.507 308.705 333.074C308.866 333.05 309.035 333.026 309.212 333.01Z" fill="white"/>
<path d="M456.658 170.066C460.716 167.86 464.347 165.879 467.986 163.898C468.131 164.027 468.276 164.156 468.421 164.277C467.39 168.101 466.352 171.934 465.216 176.145C462.342 174.108 459.725 172.248 456.658 170.066Z" fill="white"/>
<path d="M349.88 169.865C346.965 171.934 344.534 173.657 341.643 175.711C340.532 171.693 339.51 167.997 338.479 164.294C338.632 164.165 338.785 164.036 338.938 163.907C342.465 165.815 345.983 167.74 349.88 169.865Z" fill="white"/>
<path d="M496.633 214.461C499.894 214.059 502.688 213.712 505.482 213.366C505.626 213.519 505.763 213.68 505.908 213.833C504.113 216.281 502.317 218.736 500.16 221.667C498.928 219.147 497.921 217.102 496.633 214.461Z" fill="white"/>
<path d="M306.298 221.056C304.349 218.407 302.675 216.128 301 213.85C301.113 213.705 301.225 213.568 301.338 213.423C303.633 213.656 305.944 213.833 308.222 214.18C308.56 214.228 309.116 215.202 308.987 215.508C308.287 217.215 307.401 218.833 306.298 221.056Z" fill="white"/>
<path d="M418.099 333.373C417.785 333.84 417.463 334.661 416.875 335.16C412.431 338.92 407.922 342.608 403.462 346.36C402.6 347.084 401.924 347.157 401.03 346.408C396.522 342.616 391.948 338.904 387.488 335.055C386.908 334.556 386.506 333.413 386.602 332.64C387.15 328.397 387.866 324.17 388.551 319.943C389.774 312.342 391.014 304.75 392.254 297.157C392.898 293.196 393.414 289.203 394.251 285.282C394.509 284.058 395.459 282.826 396.401 281.932C397.705 280.708 399.348 279.855 400.773 278.752C401.779 277.971 402.52 278.164 403.647 278.688C409.106 281.208 410.676 285.765 411.392 291.344C412.777 302.157 414.702 312.906 416.425 323.671C416.916 326.77 417.487 329.862 418.099 333.373Z" fill="white"/>
</svg>
