<svg width="806" height="550" viewBox="0 0 806 550" fill="none" xmlns="http://www.w3.org/2000/svg">
<path d="M509.159 284.205C518.797 281.055 526.04 276.189 529.737 267.211C537.781 247.699 526.172 227.244 504.821 225.433C488.129 224.018 471.257 224.82 454.461 224.669C454.225 224.669 453.99 225.037 453.82 225.178C453.82 256.884 453.82 288.524 453.82 320.174C459.459 320.174 464.741 320.174 470.625 320.174C470.625 309.045 470.625 298.162 470.625 287.034C476.416 287.034 481.603 287.242 486.761 286.959C490.118 286.78 492.222 287.855 494.117 290.665C500.285 299.766 506.688 308.696 513.101 317.618C513.931 318.768 515.317 320.24 516.505 320.296C522.381 320.57 528.275 320.419 534.971 320.419C530.303 313.855 526.153 308.008 521.985 302.17C517.779 296.248 513.544 290.344 509.159 284.205ZM470.757 271.389C470.757 261.307 470.757 250.886 470.757 240.475C481.131 240.475 491.326 239.881 501.407 240.664C509.819 241.314 514.751 247.642 514.865 255.602C514.978 263.533 509.913 270.417 501.454 271.181C491.392 272.077 481.188 271.389 470.757 271.389Z" fill="white"/>
<path d="M371.151 223C342.435 222.981 320.65 244.408 320.678 272.652C320.706 300.992 342.397 322.211 371.245 322.145C399.434 322.079 421.237 300.36 421.247 272.37C421.247 244.125 399.839 223.019 371.151 223ZM371.179 306.509C352.62 306.527 338.511 291.863 338.455 272.502C338.398 253.216 352.242 238.476 370.5 238.372C389.126 238.268 403.592 253.32 403.508 272.709C403.432 292.032 389.597 306.49 371.179 306.509Z" fill="white"/>
<path d="M614.387 226.48C598.307 223.839 581.681 224.528 565.008 223.717C565.008 256.696 565.008 288.421 565.008 319.514C580.719 319.514 596.214 320.881 611.369 319.193C634.71 316.609 651.091 296.738 651.713 273.058C652.307 250.632 637.105 230.215 614.387 226.48ZM633.37 278.556C630.786 292.57 621.148 302.812 607.7 304.283C599.373 305.188 590.866 304.453 581.841 304.453C581.841 283.281 581.841 261.996 581.841 239.994C594.148 240.56 606.569 237.853 618.131 244.276C629.589 250.632 635.917 264.759 633.37 278.556Z" fill="white"/>
<path d="M155 320.165C160.583 320.165 165.855 320.165 171.579 320.165C171.579 307.273 171.579 294.626 171.579 281.461C187.819 281.461 203.606 281.461 219.487 281.461C219.487 276.029 219.487 271.144 219.487 265.957C211.226 265.957 203.389 265.957 195.552 265.957C187.734 265.957 179.906 265.957 171.824 265.957C171.824 256.923 171.824 248.661 171.824 239.787C190.054 239.787 208.01 239.787 225.843 239.787C225.843 234.383 225.843 229.602 225.843 224.802C201.993 224.802 178.511 224.802 155 224.802C155 256.791 155 288.44 155 320.165Z" fill="white"/>
<path d="M289.755 224.727C283.955 224.727 278.542 224.727 272.619 224.727C272.619 226.65 272.619 228.329 272.619 230.008C272.6 249.633 272.676 269.249 272.525 288.874C272.478 295.409 270.771 301.483 264.273 304.633C257.691 307.82 251.344 306.387 245.629 302.35C242.847 300.389 240.536 297.739 238.527 295.881C234.784 299.333 231.002 302.812 226.551 306.924C230.379 310.234 233.68 313.846 237.65 316.412C258.209 329.671 284.53 319.788 289.085 297.22C289.736 294.014 289.953 290.675 289.962 287.393C290.057 268.089 290.038 248.775 290.028 229.47C290.038 227.933 289.859 226.405 289.755 224.727Z" fill="white"/>
</svg>
