<svg width="48" height="48" viewBox="0 0 48 48" fill="none" xmlns="http://www.w3.org/2000/svg">
<path fill-rule="evenodd" clip-rule="evenodd" d="M44 24.0015C44 35.0474 35.0443 44 23.9985 44C12.9526 44 4 35.0474 4 24.0015C4 12.9557 12.9526 4 23.9985 4C35.0443 4 44 12.9557 44 24.0015" fill="#9262FF"/>
<rect opacity="0.497479" x="14.7544" y="26.7541" width="3.89497" height="7.78995" rx="0.364758" transform="rotate(-135 14.7544 26.7541)" fill="black"/>
<rect opacity="0.497479" x="12.0002" y="23.9999" width="3.89497" height="7.78995" rx="0.364758" transform="rotate(-45 12.0002 23.9999)" fill="black"/>
<rect opacity="0.497479" x="33.2458" y="21.2458" width="3.89497" height="7.78995" rx="0.364758" transform="rotate(45 33.2458 21.2458)" fill="black"/>
<rect opacity="0.497479" x="35.9998" y="24" width="3.89497" height="7.78995" rx="0.364758" transform="rotate(135 35.9998 24)" fill="black"/>
<rect opacity="0.497479" x="21.2456" y="14.7542" width="3.89497" height="7.78995" rx="0.364758" transform="rotate(-45 21.2456 14.7542)" fill="black"/>
<rect opacity="0.497479" x="24" y="12.0002" width="3.89497" height="7.78995" rx="0.364758" transform="rotate(45 24 12.0002)" fill="black"/>
<rect opacity="0.497479" x="26.7544" y="33.2458" width="3.89497" height="7.78995" rx="0.364758" transform="rotate(135 26.7544 33.2458)" fill="black"/>
<rect opacity="0.497479" x="24" y="35.9998" width="3.89497" height="7.78995" rx="0.364758" transform="rotate(-135 24 35.9998)" fill="black"/>
</svg>
