<svg width="79" height="80" viewBox="0 0 79 80" fill="none" xmlns="http://www.w3.org/2000/svg">
<path fill-rule="evenodd" clip-rule="evenodd" d="M39.0274 0L37.8464 3.786H33.5914L37.0304 6.402L35.7904 10.382L39.0274 7.921L42.2634 10.382L41.0234 6.402L44.4624 3.786H40.2074L39.0274 0Z" fill="black" fill-opacity="0.3"/>
<path fill-rule="evenodd" clip-rule="evenodd" d="M37.8466 72.9234H33.5916L37.0306 75.5394L35.7896 79.5194L39.0276 77.0574L42.2636 79.5194L41.0236 75.5394L44.4626 72.9234H40.2076L39.0276 69.1374L37.8466 72.9234Z" fill="black" fill-opacity="0.3"/>
<path fill-rule="evenodd" clip-rule="evenodd" d="M22.9446 10.8811L26.3846 8.2651H22.1296L20.9486 4.4781L19.7686 8.2651H15.5126L18.9526 10.8811L17.7116 14.8611L20.9486 12.3991L24.1856 14.8611L22.9446 10.8811Z" fill="black" fill-opacity="0.3"/>
<path fill-rule="evenodd" clip-rule="evenodd" d="M10.4856 23.4626L13.9246 20.8466H9.6696L8.4896 17.0596L7.3086 20.8466H3.0536L6.4926 23.4626L5.2526 27.4426L8.4896 24.9806L11.7266 27.4426L10.4856 23.4626Z" fill="black" fill-opacity="0.3"/>
<path fill-rule="evenodd" clip-rule="evenodd" d="M58.1243 10.8811L61.5633 8.2651H57.3083L56.1283 4.4781L54.9473 8.2651H50.6923L54.1313 10.8811L52.8913 14.8611L56.1283 12.3991L59.3653 14.8611L58.1243 10.8811Z" fill="black" fill-opacity="0.3"/>
<path fill-rule="evenodd" clip-rule="evenodd" d="M22.9446 71.4675L26.3846 68.8515H22.1296L20.9486 65.0655L19.7686 68.8515H15.5126L18.9526 71.4675L17.7116 75.4475L20.9486 72.9865L24.1856 75.4475L22.9446 71.4675Z" fill="black" fill-opacity="0.3"/>
<path fill-rule="evenodd" clip-rule="evenodd" d="M58.1243 71.4675L61.5633 68.8515H57.3083L56.1283 65.0655L54.9473 68.8515H50.6923L54.1313 71.4675L52.8913 75.4475L56.1283 72.9865L59.3653 75.4475L58.1243 71.4675Z" fill="black" fill-opacity="0.3"/>
<path fill-rule="evenodd" clip-rule="evenodd" d="M70.7249 23.4626L74.1639 20.8466H69.9099L68.7289 17.0596L67.5479 20.8466H63.2929L66.7329 23.4626L65.4919 27.4426L68.7289 24.9806L71.9659 27.4426L70.7249 23.4626Z" fill="black" fill-opacity="0.3"/>
<path fill-rule="evenodd" clip-rule="evenodd" d="M10.4856 58.6418L13.9246 56.0258H9.6696L8.4896 52.2398L7.3086 56.0258H3.0536L6.4926 58.6418L5.2526 62.6218L8.4896 60.1598L11.7266 62.6218L10.4856 58.6418Z" fill="black" fill-opacity="0.3"/>
<path fill-rule="evenodd" clip-rule="evenodd" d="M70.7249 58.6418L74.1639 56.0258H69.9099L68.7289 52.2398L67.5479 56.0258H63.2929L66.7329 58.6418L65.4919 62.6218L68.7289 60.1598L71.9659 62.6218L70.7249 58.6418Z" fill="black" fill-opacity="0.3"/>
<path fill-rule="evenodd" clip-rule="evenodd" d="M4.255 38.4363H0L3.44 41.0523L2.198 45.0323L5.435 42.5713L8.672 45.0323L7.431 41.0523L10.871 38.4363H6.616L5.435 34.6503L4.255 38.4363Z" fill="black" fill-opacity="0.3"/>
<path fill-rule="evenodd" clip-rule="evenodd" d="M71.5795 38.4363H67.3245L70.7635 41.0523L69.5235 45.0323L72.7595 42.5713L75.9965 45.0323L74.7555 41.0523L78.1955 38.4363H73.9405L72.7595 34.6503L71.5795 38.4363Z" fill="black" fill-opacity="0.3"/>
<path fill-rule="evenodd" clip-rule="evenodd" d="M49.2324 23.2404C45.1306 21.7066 42.3459 20 39.9031 20C37.4603 20 34.6757 21.7066 30.5739 23.2404C24.7104 25.4328 19.9913 27.6752 19.9913 28.8998C19.9913 45.1117 30.7266 59.736 39.9031 59.736C49.0796 59.736 59.8137 45.1117 59.8137 28.8998C59.8137 27.6752 55.0959 25.4328 49.2324 23.2404Z" fill="black" fill-opacity="0.3"/>
<path fill-rule="evenodd" clip-rule="evenodd" d="M31.6184 41.0385C31.2437 40.6455 31.2511 40.0253 31.6351 39.6413L32.575 38.7013C32.9656 38.3108 33.5989 38.3108 33.9894 38.7014L36.8685 41.5815C37.259 41.9721 37.8923 41.9721 38.2828 41.5816L46.2716 33.5928C46.6622 33.2022 47.2953 33.2022 47.6859 33.5928L48.8259 34.7328C49.2164 35.1233 49.2164 35.7565 48.8259 36.147L38.3537 46.6192C37.9565 47.0164 37.3103 47.0087 36.9228 46.6022L31.6184 41.0385Z" fill="#FFFFFE"/>
</svg>
