<svg width="806" height="550" viewBox="0 0 806 550" fill="none" xmlns="http://www.w3.org/2000/svg">
<path d="M644.903 312.432C643.847 312.73 642.954 312.892 642.061 312.892C638.894 312.892 637.405 311.539 637.405 307.641V278.219C637.405 262.764 625.09 255.24 610.528 255.24C599.403 255.24 593.422 256.593 581.539 261.384L578.887 276.974L594.342 278.625L596.534 270.993C599.701 269.341 602.841 269.044 606.901 269.044C617.863 269.044 618.026 277.299 618.026 284.201V286.448C614.561 285.988 610.663 285.852 606.901 285.852C591.446 285.852 575.368 289.75 575.368 306.423C575.368 320.525 586.466 325.803 596.237 325.803C607.199 325.803 614.101 319.199 617.998 312.297C618.892 320.552 623.845 325.803 632.858 325.803C637.054 325.803 641.411 324.612 645.011 322.636L644.903 312.432ZM603.328 311.999C597.482 311.999 595.371 308.534 595.371 304.176C595.371 296.814 601.379 294.865 608.281 294.865C611.421 294.865 614.886 295.326 618.053 295.759C617.592 307.046 610.23 311.999 603.328 311.999ZM577.317 221L548.031 324.314H528.948L558.235 221H577.317ZM537.989 221L508.702 324.314H489.647L518.934 221H537.989V221ZM456.68 256.593H476.953V280.899H456.68V256.593ZM456.68 299.981H476.953V324.314H456.68V299.981ZM427.177 299.088L442.497 300.577L438.302 324.314H379.133L377.185 314.11L414.429 271.317H393.262L390.258 281.819L376.291 280.304L378.7 256.566H438.166L439.682 266.77L402.113 309.59H424.037L427.177 299.088ZM330.142 255.24C305.809 255.24 293.792 271.615 293.792 291.428C293.792 313.054 308.218 325.803 329.087 325.803C350.713 325.803 366.331 312.134 366.331 290.508C366.331 271.588 354.448 255.24 330.142 255.24ZM329.682 310.943C319.18 310.943 313.767 301.93 313.767 290.21C313.767 277.434 319.911 270.099 329.845 270.099C338.993 270.099 346.355 276.243 346.355 289.912C346.355 302.823 339.751 310.943 329.682 310.943ZM276.36 309.59H285.374V324.314H256.981V286.177C256.981 274.457 253.083 269.964 245.423 269.964C236.112 269.964 232.35 276.568 232.35 286.042V309.59H241.363V324.314H212.997V286.177C212.997 274.457 209.099 269.964 201.439 269.964C192.128 269.964 188.366 276.568 188.366 286.042V309.59H201.277V324.314H160V309.59H169.013V271.29H160V256.566H188.366V266.77C192.426 259.57 199.491 255.213 208.937 255.213C218.708 255.213 227.694 259.868 231.023 269.775C234.786 260.761 242.446 255.213 253.11 255.213C265.263 255.213 276.388 262.575 276.388 278.625V309.59H276.36Z" fill="white"/>
</svg>
