<svg width="806" height="550" viewBox="0 0 806 550" fill="none" xmlns="http://www.w3.org/2000/svg">
<path d="M131.985 291.823C132.834 293.957 132.565 296.692 132.15 298.35C131.425 301.292 129.436 304.297 123.552 304.297C118.04 304.297 114.683 301.106 114.683 296.299V287.741H91V294.537C91 314.222 106.478 320.168 123.075 320.168C139.03 320.168 152.166 314.74 154.259 300.007C155.336 292.382 154.549 287.389 154.176 285.545C150.446 267.062 116.963 261.551 114.455 251.211C114.107 249.686 114.079 248.106 114.372 246.57C114.994 243.731 116.921 240.644 122.433 240.644C127.613 240.644 130.617 243.835 130.617 248.642V254.112H152.643V247.896C152.643 228.668 135.383 225.663 122.909 225.663C107.203 225.663 94.3774 230.864 92.036 245.264C91.4144 249.201 91.3108 252.724 92.2432 257.158C96.0765 275.185 127.426 280.406 131.985 291.823" fill="white"/>
<path d="M422.193 291.823C423.042 293.957 422.773 296.692 422.358 298.35C421.633 301.292 419.644 304.297 413.76 304.297C408.248 304.297 404.891 301.106 404.891 296.299V287.741H381.208V294.537C381.208 314.222 396.686 320.168 413.283 320.168C429.238 320.168 442.374 314.74 444.467 300.007C445.544 292.382 444.757 287.389 444.384 285.545C440.654 267.062 407.171 261.551 404.663 251.211C404.315 249.686 404.287 248.106 404.58 246.57C405.202 243.731 407.129 240.644 412.641 240.644C417.821 240.644 420.825 243.835 420.825 248.642V254.112H442.851V247.896C442.851 228.668 425.591 225.663 413.117 225.663C397.411 225.663 384.585 230.864 382.244 245.264C381.622 249.201 381.519 252.724 382.451 257.158C386.284 275.185 417.634 280.406 422.193 291.823" fill="white"/>
<path d="M185.484 228.481L169.115 316.728H192.965L205.044 236.644H205.542L217.29 316.728H241.015L224.749 228.46L185.484 228.481ZM318.819 228.481L307.941 295.946H307.423L296.566 228.481H260.575L258.627 316.728H280.715L281.254 237.39H281.751L296.483 316.728H318.882L333.634 237.411H334.111L334.67 316.728H356.738L354.79 228.46L318.819 228.481Z" fill="white"/>
<path d="M492.973 303.509C499.106 303.509 500.992 299.282 501.427 297.127C501.614 296.174 501.634 294.889 501.634 293.75V228.481H523.971V291.74C523.975 293.676 523.906 295.611 523.764 297.541C522.209 314.014 509.197 319.36 492.973 319.36C476.728 319.36 463.716 314.014 462.162 297.541C462.1 296.671 461.934 293.356 461.955 291.74V228.46H484.291V293.729C484.271 294.889 484.312 296.174 484.499 297.127C484.913 299.282 486.819 303.509 492.973 303.509ZM600.884 228.481L602.086 297.749H601.61L581.304 228.481H548.566V315.796H570.26L569.058 244.125H569.535L591.312 315.796H622.744V228.481H600.884ZM677.031 302.597C683.413 302.597 685.651 298.557 686.045 296.174C686.231 295.2 686.252 293.957 686.252 292.859V280.012H677.197V267.165H708.464V290.828C708.464 292.486 708.423 293.687 708.153 296.63C706.703 312.709 692.758 318.448 677.114 318.448C661.47 318.448 647.547 312.709 646.075 296.63C645.827 293.687 645.765 292.486 645.765 290.828V253.697C645.765 252.123 645.972 249.346 646.138 247.896C648.106 231.382 661.47 226.077 677.114 226.077C692.758 226.077 706.475 231.34 708.091 247.875C708.381 250.693 708.298 253.677 708.298 253.677V256.64H686.045V251.687C686.045 251.687 686.045 249.615 685.775 248.331C685.361 246.383 683.703 241.907 676.949 241.907C670.525 241.907 668.64 246.155 668.163 248.331C667.894 249.491 667.79 251.066 667.79 252.496V292.838C667.79 293.957 667.832 295.2 667.997 296.195C668.412 298.557 670.65 302.597 677.031 302.597" fill="white"/>
</svg>
