<svg width="806" height="550" viewBox="0 0 806 550" fill="none" xmlns="http://www.w3.org/2000/svg">
<path d="M426.655 242.02H476.866V199.952H462.98C460.647 195.006 457.536 190.467 453.765 186.507C449.459 181.971 444.502 178.099 439.058 175.02C432.887 171.515 426.289 168.821 419.428 167.004C411.645 164.946 403.621 163.938 395.57 164.006C385.383 163.898 375.237 165.302 365.462 168.172C356.833 170.73 348.783 174.943 341.761 180.574C335.138 185.919 329.826 192.709 326.234 200.425C322.415 208.833 320.517 217.986 320.68 227.219C320.579 234.981 321.872 242.699 324.498 250.004C326.861 256.429 330.332 262.39 334.755 267.614C338.978 272.603 343.989 276.867 349.588 280.238C355.061 283.525 360.91 286.142 367.009 288.033L398.789 298.321C401.65 299.247 404.564 300.299 407.531 301.477C410.364 302.526 413.065 303.903 415.578 305.58C417.934 307.155 419.942 309.196 421.48 311.576C423.088 314.236 423.888 317.306 423.783 320.413C423.949 323.411 423.45 326.41 422.32 329.192C421.191 331.975 419.46 334.473 417.251 336.508C411.861 340.691 405.122 342.747 398.315 342.283C393.463 342.385 388.628 341.659 384.019 340.137C380.242 338.878 376.785 336.81 373.888 334.078C371.222 331.502 369.163 328.365 367.861 324.894C366.487 321.2 365.803 317.285 365.841 313.344V304.665H315.536V346.575H329.832C332.303 352.563 335.831 358.058 340.246 362.797C344.781 367.649 350.014 371.798 355.774 375.105C361.947 378.645 368.586 381.301 375.498 382.995C393.413 387.271 412.166 386.474 429.653 380.691C438.542 377.672 446.754 372.944 453.828 366.773C460.583 360.751 465.965 353.346 469.607 345.061C473.43 336.229 475.345 326.69 475.225 317.068C475.319 310.183 474.339 303.326 472.321 296.743C470.528 291.019 467.832 285.618 464.337 280.743C461.022 276.162 456.969 272.162 452.344 268.908C447.775 265.684 442.784 263.103 437.512 261.239L399.325 248.269C396.085 247.154 392.75 246.102 389.321 245.113C386.021 244.259 382.841 242.997 379.853 241.357C377.126 239.867 374.756 237.799 372.91 235.298C370.966 232.36 370.014 228.875 370.196 225.357C370.17 222.37 370.909 219.425 372.342 216.804C373.645 214.435 375.496 212.412 377.739 210.903C380.176 209.3 382.88 208.146 385.723 207.494C388.95 206.735 392.255 206.365 395.57 206.39C403.023 206.384 410.284 208.749 416.304 213.143C419.067 215.166 421.423 217.693 423.247 220.591C425.02 223.377 426.181 226.507 426.655 229.775V242.02ZM451.461 200.015C450.703 192.63 450.114 185.729 449.694 179.312C439.653 175.265 429.299 172.046 418.734 169.686C409.288 167.725 399.663 166.752 390.015 166.783C381.193 166.656 372.425 168.187 364.168 171.296C356.895 174.055 350.228 178.203 344.538 183.509C339.152 188.606 334.913 194.792 332.104 201.656C329.216 208.737 327.757 216.32 327.812 223.968C327.613 231.945 329.075 239.877 332.104 247.259C334.973 253.773 339.164 259.619 344.412 264.427C350.151 269.645 356.601 274.022 363.569 277.429C371.669 281.463 379.981 285.055 388.469 288.191C400.194 292.061 411.16 297.934 420.88 305.548C424.644 308.794 427.62 312.853 429.583 317.418C431.545 321.984 432.444 326.936 432.21 331.9C432.248 336.629 431.38 341.321 429.653 345.723C427.897 350.073 425.265 354.015 421.921 357.305C418.339 360.862 414.034 363.606 409.298 365.353C403.567 367.389 397.516 368.372 391.435 368.256C376.329 368.256 364.568 364.617 356.152 357.337C347.736 350.057 340.825 338.686 335.418 323.222C334.647 321.092 333.394 319.169 331.757 317.604C330.064 316.329 327.971 315.702 325.855 315.837C323.998 315.79 322.151 316.123 320.427 316.815C322.132 325.231 323.625 333.584 324.909 341.873C326.192 350.163 327.149 358.831 327.781 367.878C336.306 372.814 345.501 376.492 355.079 378.797C366.827 381.695 378.894 383.095 390.994 382.963C401.931 383.208 412.83 381.575 423.215 378.134C431.353 375.364 438.77 370.814 444.928 364.817C450.59 359.221 454.907 352.411 457.552 344.903C460.258 336.992 461.602 328.679 461.528 320.318C461.693 313.53 460.493 306.778 457.999 300.462C455.505 294.147 451.769 288.396 447.011 283.552C437.207 273.6 422.142 264.522 401.818 256.316C388.639 251.4 376.145 244.813 364.642 236.718C360.686 233.929 357.469 230.219 355.27 225.908C353.07 221.597 351.954 216.815 352.018 211.976C351.996 207.5 353.08 203.087 355.174 199.131C357.16 195.327 359.936 191.991 363.316 189.348C366.89 186.592 370.946 184.526 375.277 183.257C379.987 181.849 384.879 181.147 389.794 181.174C402.986 181.174 413.411 183.962 421.069 189.537C428.728 195.113 435.324 204.002 440.857 216.205C441.558 217.569 442.536 218.773 443.729 219.739C445.507 220.948 447.644 221.516 449.788 221.349C451.403 221.286 453.009 221.074 454.585 220.718C453.239 214.322 452.197 207.421 451.461 200.015V200.015ZM456.1 215.037C460.676 219.329 464.968 221.791 469.26 221.791C473.607 221.816 477.787 220.115 480.881 217.062C483.976 214.009 485.732 209.853 485.766 205.506C485.705 201.995 484.607 198.58 482.61 195.691C470.396 178.176 443.792 166.815 413.18 166.815C364.579 166.815 342.866 192.598 342.866 223.021C342.866 297.028 454.459 276.451 454.459 321.265C454.459 340.2 441.015 349.668 413.18 349.668C392.098 349.668 375.877 339.222 363.032 326.314C361.442 324.273 359.428 322.6 357.128 321.413C354.829 320.225 352.3 319.55 349.714 319.435C346.793 319.487 343.938 320.312 341.439 321.826C338.94 323.341 336.888 325.49 335.489 328.055C334.091 330.621 333.398 333.511 333.479 336.431C333.561 339.352 334.415 342.199 335.954 344.682C347.884 364.028 376.981 382.143 413.306 382.143C463.8 382.143 490.058 358.82 490.058 321.36C490.058 244.608 378.465 263.322 378.465 223.116C378.465 210.84 387.932 198.847 413.18 198.847C429.011 198.67 444.33 204.448 456.1 215.037V215.037Z" stroke="white" stroke-width="6.31183"/>
</svg>
