<svg width="48" height="48" viewBox="0 0 48 48" fill="none" xmlns="http://www.w3.org/2000/svg">
<path fill-rule="evenodd" clip-rule="evenodd" d="M24 4C35.0467 4 44 12.9564 44 24.0031C44 35.0497 35.0467 44 24 44C12.9533 44 4 35.0497 4 24.0031C4 12.9564 12.9533 4 24 4Z" fill="#88FF00"/>
<path fill-rule="evenodd" clip-rule="evenodd" d="M23.5767 32.9448C23.8008 33.2009 24.1992 33.2009 24.4233 32.9448L32.1837 24.0758C32.5019 23.7121 32.2437 23.1429 31.7604 23.1429H16.2396C15.7563 23.1429 15.4981 23.7121 15.8163 24.0758L23.5767 32.9448Z" fill="black"/>
<path opacity="0.503679" fill-rule="evenodd" clip-rule="evenodd" d="M23.5679 25.1957C23.7928 25.4656 24.2072 25.4656 24.4321 25.1957L29.6597 18.9226C29.965 18.5562 29.7045 18 29.2276 18H18.7724C18.2955 18 18.035 18.5562 18.3403 18.9226L23.5679 25.1957Z" fill="black"/>
</svg>
