<svg width="48" height="48" viewBox="0 0 48 48" fill="none" xmlns="http://www.w3.org/2000/svg">
<path fill-rule="evenodd" clip-rule="evenodd" d="M44 24.0015C44 35.0474 35.0443 44 23.9985 44C12.9526 44 4 35.0474 4 24.0015C4 12.9557 12.9526 4 23.9985 4C35.0443 4 44 12.9557 44 24.0015Z" fill="#00FF86"/>
<path opacity="0.2" fill-rule="evenodd" clip-rule="evenodd" d="M23.6284 12.4129C23.827 12.1923 24.173 12.1923 24.3716 12.4129L27.749 16.1655C28.0386 16.4873 27.8102 17 27.3773 17H20.6227C20.1898 17 19.9614 16.4873 20.251 16.1655L23.6284 12.4129Z" fill="black"/>
<path opacity="0.2" fill-rule="evenodd" clip-rule="evenodd" d="M35.5871 23.6284C35.8077 23.827 35.8077 24.173 35.5871 24.3716L31.8345 27.749C31.5127 28.0386 31 27.8102 31 27.3773V20.6227C31 20.1898 31.5127 19.9614 31.8345 20.251L35.5871 23.6284Z" fill="black"/>
<path opacity="0.2" fill-rule="evenodd" clip-rule="evenodd" d="M12.4129 23.6284C12.1923 23.827 12.1923 24.173 12.4129 24.3716L16.1655 27.749C16.4873 28.0386 17 27.8102 17 27.3773V20.6227C17 20.1898 16.4873 19.9614 16.1655 20.251L12.4129 23.6284Z" fill="black"/>
<path opacity="0.2" fill-rule="evenodd" clip-rule="evenodd" d="M23.6284 35.5871C23.827 35.8077 24.173 35.8077 24.3716 35.5871L27.749 31.8345C28.0386 31.5127 27.8102 31 27.3773 31H20.6227C20.1898 31 19.9614 31.5127 20.251 31.8345L23.6284 35.5871Z" fill="black"/>
<rect opacity="0.2" x="32" y="22.5" width="3" height="16" rx="0.5" transform="rotate(90 32 22.5)" fill="black"/>
<rect opacity="0.2" x="22.5" y="16" width="3" height="16" rx="0.5" fill="black"/>
</svg>
