<svg width="48" height="48" viewBox="0 0 48 48" fill="none" xmlns="http://www.w3.org/2000/svg">
<path fill-rule="evenodd" clip-rule="evenodd" d="M44 24.0015C44 35.0474 35.0436 44 24 44C12.9533 44 4 35.0474 4 24.0015C4 12.9557 12.9533 4 24 4C35.0436 4 44 12.9557 44 24.0015Z" fill="#CB66FF"/>
<path fill-rule="evenodd" clip-rule="evenodd" d="M22 19C22 21.208 20.208 23 18 23C15.792 23 14 21.208 14 19C14 16.792 15.792 15 18 15C20.208 15 22 16.792 22 19Z" fill="black"/>
<rect x="23" y="15" width="11" height="3" rx="0.5" fill="black"/>
<rect opacity="0.59593" x="23" y="19" width="11" height="3" rx="0.5" fill="black"/>
<path fill-rule="evenodd" clip-rule="evenodd" d="M22 28C22 30.208 20.208 32 18 32C15.792 32 14 30.208 14 28C14 25.792 15.792 24 18 24C20.208 24 22 25.792 22 28Z" fill="black"/>
<rect x="23" y="24" width="11" height="3" rx="0.5" fill="black"/>
<rect opacity="0.604628" x="23" y="28" width="11" height="3" rx="0.5" fill="black"/>
</svg>
