<svg width="48" height="48" viewBox="0 0 48 48" fill="none" xmlns="http://www.w3.org/2000/svg">
<path fill-rule="evenodd" clip-rule="evenodd" d="M44 24.0015C44 35.0474 35.0443 44 23.9985 44C12.9526 44 4 35.0474 4 24.0015C4 12.9557 12.9526 4 23.9985 4C35.0443 4 44 12.9557 44 24.0015Z" fill="#00FF86"/>
<path fill-rule="evenodd" clip-rule="evenodd" d="M25.4142 15.5147C24.6329 16.296 23.3666 16.2956 22.5858 15.5147C21.8045 14.7334 21.8045 13.4676 22.5858 12.6863C23.3666 11.9054 24.6329 11.905 25.4142 12.6863C26.1951 13.4671 26.1951 14.7339 25.4142 15.5147Z" fill="black"/>
<path opacity="0.501272" fill-rule="evenodd" clip-rule="evenodd" d="M20.4645 20.4645C19.6831 21.2458 18.4169 21.2453 17.636 20.4645C16.8547 19.6831 16.8547 18.4174 17.636 17.636C18.4169 16.8552 19.6831 16.8547 20.4645 17.636C21.2453 18.4169 21.2453 19.6836 20.4645 20.4645Z" fill="black"/>
<path opacity="0.195335" fill-rule="evenodd" clip-rule="evenodd" d="M15.5147 25.4142C14.7334 26.1955 13.4671 26.1951 12.6863 25.4142C11.905 24.6329 11.905 23.3671 12.6863 22.5858C13.4671 21.8049 14.7334 21.8045 15.5147 22.5858C16.2956 23.3666 16.2956 24.6334 15.5147 25.4142Z" fill="black"/>
<path fill-rule="evenodd" clip-rule="evenodd" d="M25.4142 35.3137C24.6329 36.095 23.3666 36.0946 22.5858 35.3137C21.8045 34.5324 21.8045 33.2666 22.5858 32.4853C23.3666 31.7044 24.6329 31.704 25.4142 32.4853C26.1951 33.2661 26.1951 34.5329 25.4142 35.3137Z" fill="black"/>
<path opacity="0.5" fill-rule="evenodd" clip-rule="evenodd" d="M30.364 20.4645C29.5826 21.2458 28.3164 21.2453 27.5355 20.4645C26.7542 19.6831 26.7542 18.4174 27.5355 17.636C28.3164 16.8552 29.5826 16.8547 30.364 17.636C31.1448 18.4169 31.1448 19.6836 30.364 20.4645Z" fill="black"/>
<path fill-rule="evenodd" clip-rule="evenodd" d="M25.4142 25.4142C24.6329 26.1955 23.3666 26.1951 22.5858 25.4142C21.8045 24.6329 21.8045 23.3671 22.5858 22.5858C23.3666 21.8049 24.6329 21.8045 25.4142 22.5858C26.1951 23.3666 26.1951 24.6334 25.4142 25.4142Z" fill="black"/>
<path opacity="0.501272" fill-rule="evenodd" clip-rule="evenodd" d="M20.4645 30.3639C19.6831 31.1453 18.4169 31.1448 17.636 30.3639C16.8547 29.5826 16.8547 28.3168 17.636 27.5355C18.4169 26.7547 19.6831 26.7542 20.4645 27.5355C21.2453 28.3164 21.2453 29.5831 20.4645 30.3639Z" fill="black"/>
<path opacity="0.2" fill-rule="evenodd" clip-rule="evenodd" d="M35.3137 25.4142C34.5324 26.1955 33.2661 26.1951 32.4853 25.4142C31.704 24.6329 31.704 23.3671 32.4853 22.5858C33.2661 21.8049 34.5324 21.8045 35.3137 22.5858C36.0946 23.3666 36.0946 24.6334 35.3137 25.4142Z" fill="black"/>
<path opacity="0.5" fill-rule="evenodd" clip-rule="evenodd" d="M30.364 30.3639C29.5826 31.1453 28.3164 31.1448 27.5355 30.3639C26.7542 29.5826 26.7542 28.3168 27.5355 27.5355C28.3164 26.7547 29.5826 26.7542 30.364 27.5355C31.1448 28.3164 31.1448 29.5831 30.364 30.3639Z" fill="black"/>
</svg>
