<svg width="48" height="48" viewBox="0 0 48 48" fill="none" xmlns="http://www.w3.org/2000/svg">
<path fill-rule="evenodd" clip-rule="evenodd" d="M44 24C44 35.0467 35.0436 44 24 44C12.9533 44 4 35.0467 4 24C4 12.9533 12.9533 4 24 4C35.0436 4 44 12.9533 44 24Z" fill="#00D4FF"/>
<path fill-rule="evenodd" clip-rule="evenodd" d="M27.0092 24.9988C27.0092 26.6545 25.6655 28 24.0092 28C22.3528 28 21.0092 26.6545 21.0092 24.9988C21.0092 23.3431 22.3528 22 24.0092 22C25.6655 22 27.0092 23.3431 27.0092 24.9988Z" fill="black"/>
<path opacity="0.796284" fill-rule="evenodd" clip-rule="evenodd" d="M27.0092 15.0747V25H21.0092L21.0092 15.0697L21.0092 15H21.0099C21.021 14.501 21.1515 13.9974 21.4131 13.5343C22.2409 12.0668 24.075 11.5643 25.5109 12.4118C26.4486 12.9671 26.9837 13.9647 27.0083 15H27.0092V15.0747Z" fill="black"/>
<path opacity="0.499273" fill-rule="evenodd" clip-rule="evenodd" d="M31.4847 32.8107L22.8892 27.8481L25.8892 22.6519L34.4891 27.6171L34.5494 27.6519L34.549 27.6526C34.9757 27.9117 35.3465 28.2765 35.6168 28.7345C36.4737 30.1853 35.9919 32.0248 34.54 32.8446C33.5902 33.379 32.4588 33.3437 31.5499 32.8473L31.5494 32.8481L31.4847 32.8107Z" fill="black"/>
<path opacity="0.49975" fill-rule="evenodd" clip-rule="evenodd" d="M16.5336 32.8107L25.1292 27.8481L22.1292 22.6519L13.5293 27.6171L13.4689 27.6519L13.4693 27.6526C13.0427 27.9117 12.6718 28.2765 12.4015 28.7345C11.5446 30.1853 12.0264 32.0248 13.4784 32.8446C14.4281 33.379 15.5595 33.3437 16.4685 32.8473L16.4689 32.8481L16.5336 32.8107Z" fill="black"/>
</svg>
