<svg width="48" height="48" viewBox="0 0 48 48" fill="none" xmlns="http://www.w3.org/2000/svg">
<path fill-rule="evenodd" clip-rule="evenodd" d="M24 4C35.0467 4 44 12.9564 44 24.0031C44 35.0497 35.0467 44 24 44C12.9533 44 4 35.0497 4 24.0031C4 12.9564 12.9533 4 24 4Z" fill="#FFE600"/>
<path opacity="0.500318" fill-rule="evenodd" clip-rule="evenodd" d="M23.3926 33.2914C23.7119 33.6638 24.2881 33.6638 24.6074 33.2914L28.868 28.3206C29.3128 27.8017 28.9441 27 28.2606 27H19.7394C19.0559 27 18.6872 27.8017 19.132 28.3206L23.3926 33.2914Z" fill="black"/>
<path fill-rule="evenodd" clip-rule="evenodd" d="M23.408 15.6511C23.7255 15.302 24.2745 15.302 24.592 15.6511L32.7835 24.6619C33.2507 25.1758 32.8861 26 32.1916 26H15.8084C15.1139 26 14.7493 25.1758 15.2165 24.6619L23.408 15.6511Z" fill="black"/>
</svg>
