<svg width="48" height="48" viewBox="0 0 48 48" fill="none" xmlns="http://www.w3.org/2000/svg">
<path fill-rule="evenodd" clip-rule="evenodd" d="M44 24.0015C44 35.0474 35.0443 44 23.9985 44C12.9526 44 4 35.0474 4 24.0015C4 12.9557 12.9526 4 23.9985 4C35.0443 4 44 12.9557 44 24.0015Z" fill="#00FFEE"/>
<path opacity="0.5" fill-rule="evenodd" clip-rule="evenodd" d="M19.8121 16.1585C20.1221 15.6364 20.8779 15.6364 21.1879 16.1585L29.2825 29.7916C29.5991 30.3248 29.2148 31 28.5946 31H12.4054C11.7852 31 11.4009 30.3248 11.7175 29.7916L19.8121 16.1585Z" fill="black"/>
<path opacity="0.5" fill-rule="evenodd" clip-rule="evenodd" d="M27.8071 19.2011C28.1149 18.6675 28.8851 18.6675 29.1929 19.2011L35.3078 29.8002C35.6155 30.3336 35.2306 31 34.6149 31H22.3851C21.7694 31 21.3845 30.3336 21.6922 29.8002L27.8071 19.2011Z" fill="black"/>
</svg>
