<svg width="48" height="48" viewBox="0 0 48 48" fill="none" xmlns="http://www.w3.org/2000/svg">
<path fill-rule="evenodd" clip-rule="evenodd" d="M24 4C35.0467 4 44 12.9564 44 24.0031C44 35.0497 35.0467 44 24 44C12.9533 44 4 35.0497 4 24.0031C4 12.9564 12.9533 4 24 4Z" fill="#E2F200"/>
<path opacity="0.303529" fill-rule="evenodd" clip-rule="evenodd" d="M24.424 12.765C24.1646 12.6029 23.8354 12.6029 23.576 12.765L17.2226 16.7359C16.541 17.1619 16.8428 18.2143 17.6466 18.2143H30.3534C31.1572 18.2143 31.459 17.1619 30.7774 16.7359L24.424 12.765Z" fill="black"/>
<path opacity="0.303529" fill-rule="evenodd" clip-rule="evenodd" d="M13.5431 30.4696C13.5324 30.7754 13.697 31.0604 13.9671 31.204L20.5827 34.7208C21.2924 35.0981 22.0529 34.3105 21.6511 33.6144L15.2976 22.61C14.8958 21.9139 13.8334 22.1787 13.8053 22.982L13.5431 30.4696Z" fill="black"/>
<path opacity="0.303529" fill-rule="evenodd" clip-rule="evenodd" d="M34.4569 30.4696C34.4676 30.7754 34.303 31.0604 34.0329 31.204L27.4173 34.7208C26.7076 35.0981 25.9471 34.3105 26.3489 33.6144L32.7024 22.61C33.1042 21.9139 34.1666 22.1787 34.1947 22.982L34.4569 30.4696Z" fill="black"/>
<path fill-rule="evenodd" clip-rule="evenodd" d="M24.6973 32.689C24.3914 33.2327 23.6086 33.2327 23.3027 32.689L16.7956 21.1208C16.4956 20.5875 16.881 19.9286 17.4929 19.9286H30.5071C31.119 19.9286 31.5044 20.5875 31.2044 21.1208L24.6973 32.689Z" fill="black"/>
</svg>
