<svg width="48" height="48" viewBox="0 0 48 48" fill="none" xmlns="http://www.w3.org/2000/svg">
<path fill-rule="evenodd" clip-rule="evenodd" d="M44 23.9985C44 35.0443 35.0467 44 24 44C12.9533 44 4 35.0443 4 23.9985C4 12.9526 12.9533 4 24 4C35.0467 4 44 12.9526 44 23.9985Z" fill="#00FF86"/>
<path opacity="0.2" fill-rule="evenodd" clip-rule="evenodd" d="M27.8027 21.9013C27.8027 26.2667 24.264 29.8027 19.9013 29.8027C15.536 29.8027 12 26.2667 12 21.9013C12 17.5387 15.536 14 19.9013 14C24.264 14 27.8027 17.5387 27.8027 21.9013Z" fill="black"/>
<path opacity="0.2" fill-rule="evenodd" clip-rule="evenodd" d="M35.7037 21.9013C35.7037 26.2667 32.1651 29.8027 27.8024 29.8027C23.4371 29.8027 19.9011 26.2667 19.9011 21.9013C19.9011 17.5387 23.4371 14 27.8024 14C32.1651 14 35.7037 17.5387 35.7037 21.9013Z" fill="black"/>
<path opacity="0.2" fill-rule="evenodd" clip-rule="evenodd" d="M32.1451 28.4416C32.1451 32.8043 28.6064 36.3429 24.2437 36.3429C19.8784 36.3429 16.3424 32.8043 16.3424 28.4416C16.3424 24.0763 19.8784 20.5403 24.2437 20.5403C28.6064 20.5403 32.1451 24.0763 32.1451 28.4416Z" fill="black"/>
<path fill-rule="evenodd" clip-rule="evenodd" d="M27.8027 21.9013C27.8027 21.728 27.7627 21.5653 27.752 21.3947C26.6907 20.864 25.512 20.5387 24.2453 20.5387C22.64 20.5387 21.152 21.024 19.9067 21.8453C19.9067 21.864 19.9013 21.8827 19.9013 21.9013C19.9013 24.8187 21.4987 27.3387 23.8533 28.7067C26.2027 27.3387 27.8027 24.8187 27.8027 21.9013Z" fill="black" fill-opacity="0.2"/>
</svg>
