<svg width="806" height="550" viewBox="0 0 806 550" fill="none" xmlns="http://www.w3.org/2000/svg">
<path d="M502.771 185.396C508.877 192.756 519.525 196.984 525.788 204.343C521.247 182.735 504.65 165.041 484.92 160.813C494.628 168.016 496.664 178.037 502.771 185.396ZM266.018 240.2C279.64 210.606 299.839 216.87 308.452 188.841C303.441 197.297 281.363 200.898 271.185 222.976C276.509 209.823 273.847 189.781 282.615 178.82C256.153 198.549 267.427 230.179 266.018 240.2ZM290.445 310.976C292.95 322.406 285.747 339.161 297.178 354.976C285.434 341.823 260.381 338.378 250.203 318.335C262.886 367.346 296.082 357.324 310.957 367.972C298.743 350.278 308.765 338.534 290.445 310.976ZM286.687 341.823C279.327 314.421 292.324 304.869 282.459 278.563C281.519 293.439 271.498 300.641 278.231 327.73C266.487 304.712 248.324 296.1 243 280.442C243.313 323.502 277.918 329.922 286.687 341.823ZM339.768 387.701C329.59 373.609 336.48 365.623 307.982 340.1C314.089 349.495 307.825 361.239 327.085 379.402C308.295 368.285 282.146 372.982 269.619 358.107C291.227 399.445 329.12 382.534 339.768 387.701ZM478.344 379.402C497.603 361.082 491.34 349.339 497.447 340.1C468.792 365.623 475.838 373.609 465.504 387.701C476.308 382.534 514.201 399.445 535.653 358.107C523.283 373.139 497.134 368.285 478.344 379.402ZM508.251 354.976C519.681 339.161 512.479 322.563 514.827 310.976C496.507 338.534 506.529 350.278 494.315 367.972C509.347 357.324 542.386 367.346 555.069 318.335C544.891 338.378 519.995 341.823 508.251 354.976ZM462.529 389.737C452.351 387.075 441.86 385.353 431.212 385.039C421.504 384.883 411.796 386.449 402.714 389.893C393.632 386.449 383.924 384.883 374.216 385.039C363.569 385.353 353.078 387.075 342.9 389.737C325.676 394.278 310.8 397.879 297.804 391.303C310.174 402.263 324.736 406.335 345.718 403.986C363.099 402.107 377.191 393.338 393.632 393.495H394.259C383.924 398.662 374.686 405.865 367.17 414.633L375.156 415.73C375.156 415.73 383.455 398.975 402.714 394.591C421.974 398.975 430.273 415.73 430.273 415.73L438.259 414.633C430.743 405.865 421.504 398.662 411.17 393.495H411.796C428.237 393.338 442.33 402.107 459.71 403.986C480.692 406.178 495.098 402.263 507.625 391.303C494.628 397.879 479.753 394.278 462.529 389.737ZM283.711 248.812C276.665 262.435 265.548 265.567 266.801 293.595C260.85 268.698 246.601 259.304 246.758 243.489C236.893 285.14 263.199 289.994 270.089 307.531C268.993 282.478 284.964 277.467 283.711 248.812ZM293.576 216.713C291.071 220.158 289.348 221.724 282.772 227.047C272.907 234.877 266.018 245.994 263.669 258.364C264.295 243.019 254.9 221.097 261.164 205.126C236.893 239.418 262.573 259.93 263.512 272.456C269.619 248.499 284.181 248.343 293.576 216.713ZM541.76 258.364C539.254 245.994 532.521 234.877 522.657 227.047C516.08 221.567 514.358 220.158 511.852 216.713C521.247 248.343 535.81 248.499 542.073 272.456C543.012 260.086 568.692 239.574 544.422 205.126C550.685 221.097 541.29 243.019 541.76 258.364ZM562.429 280.442C557.105 296.257 538.941 304.712 527.197 327.73C533.931 300.641 523.909 293.439 522.97 278.563C513.105 304.869 526.101 314.421 518.742 341.823C527.511 329.922 562.115 323.502 562.429 280.442ZM521.717 248.812C520.308 277.467 536.436 282.478 535.34 307.531C542.073 290.15 568.535 285.14 558.671 243.489C558.827 259.46 544.578 268.698 538.628 293.752C539.881 265.41 528.92 262.435 521.717 248.812ZM302.658 185.396C308.765 178.037 310.8 168.016 320.508 160.813C300.622 165.041 284.025 182.578 279.484 204.186C285.747 196.827 296.551 192.599 302.658 185.396ZM497.134 188.528C505.746 216.713 525.945 210.45 539.567 239.887C538.158 230.023 549.432 198.236 522.97 178.82C531.895 189.624 529.233 209.823 534.4 222.976C524.066 200.898 501.988 197.297 497.134 188.528ZM428.237 204.656C423.07 202.464 417.59 201.055 412.109 200.272V203.873C417.276 204.656 422.287 206.065 426.985 207.944C427.611 206.848 428.081 205.752 428.237 204.656ZM424.166 169.738L425.262 168.799L423.227 167.859L417.746 167.703L416.337 168.642L413.205 168.329V169.112C415.241 169.268 417.276 169.425 418.842 169.738L421.504 169.582L424.166 169.738ZM413.832 286.549C413.832 285.609 412.579 284.67 410.857 283.887H410.543C410.543 284.67 410.387 288.271 410.387 290.15C412.422 289.054 413.832 288.115 413.832 286.549ZM351.042 217.809C351.199 217.183 351.355 216.4 351.512 215.774C350.729 215.93 350.103 216.087 349.32 215.93L351.042 217.809ZM325.832 192.599L338.672 205.439C323.17 221.567 314.402 243.175 314.089 265.567H295.925C296.238 238.165 306.886 212.172 325.832 192.599ZM318.003 292.499L316.907 292.342L315.811 291.246L310.644 290.777L312.21 292.969L307.512 292.029L308.765 290.933L307.669 289.837L304.224 291.246L302.971 293.439L303.441 298.606L307.355 308.001L309.234 310.976L310.331 311.289L307.355 305.652L306.729 302.833L307.355 302.207L306.886 300.641L308.608 300.954L311.427 305.026L312.053 305.339V302.364L313.149 302.99L313.462 304.556L316.281 305.339L317.533 304.399L318.003 304.712V306.905L319.256 308.47L320.822 308.784L324.266 314.421L326.302 315.047L326.928 312.385C330.53 318.179 334.601 323.659 339.455 328.513L326.615 341.353C307.528 322.103 296.545 296.27 295.925 269.168H314.089C314.245 276.997 315.654 284.983 318.003 292.499ZM335.853 269.012C335.853 270.734 336.01 272.456 336.323 274.335L334.131 274.805L333.661 276.997L328.964 282.947L329.12 291.09L324.423 292.656H321.761C319.256 284.983 318.003 277.154 317.69 269.012H335.853ZM339.925 320.214L343.996 322.563L344.779 323.189L341.804 326.164C340.394 324.755 339.142 323.346 337.889 321.78L339.925 320.214ZM356.522 223.289L369.362 236.129C366.7 239.104 364.352 242.393 362.629 245.994H361.69L359.811 246.464H359.184L357.305 248.186L359.811 247.873L362.003 247.403L361.533 248.03L359.654 249.282H358.715L355.896 251.474L353.234 251.161L349.32 258.521L350.103 259.93L347.91 262.435L347.597 265.567H339.455C339.611 249.752 345.718 234.72 356.522 223.289ZM369.675 276.371L370.615 275.901L372.964 277.624L371.868 278.407L374.529 280.129L374.373 278.25L375.782 275.901L377.348 277.467L378.914 279.659L376.095 280.442L377.348 282.947L379.227 281.851L378.914 281.068L380.323 280.129L381.106 276.214C382.202 278.563 383.611 280.755 385.334 282.634L372.494 295.474C366.231 288.898 362.316 280.442 361.22 271.36L363.882 274.179H366.387L369.675 276.371ZM351.199 262.748L351.512 259.147L353.704 257.894L357.618 258.521L358.245 259.147C357.932 261.182 357.775 263.375 357.618 265.41H353.234L351.199 262.748ZM345.248 275.275L343.526 277.937H340.551L340.394 277.78C339.925 274.962 339.611 271.987 339.455 269.168H344.935L343.683 273.553L345.248 275.275ZM357.305 310.663C356.053 309.253 354.643 307.844 353.547 306.435L354.174 301.894L352.295 297.51L351.825 290.62L349.633 286.392L350.103 283.73L347.441 278.72L345.248 277.624L346.188 274.962L345.248 272.926L346.188 270.577H348.693L349.633 269.168H353.861L354.487 270.421L353.547 274.649L353.078 275.432L354.643 278.876L353.547 279.503L352.764 278.563L352.451 278.876L353.234 280.912L354.487 283.261H355.113L355.426 281.068L354.8 280.286V278.876L354.643 275.901L355.583 270.577L354.643 269.168H357.618C358.245 279.972 362.629 290.15 370.145 297.979L357.305 310.663ZM466.6 328.2C482.102 312.228 491.027 291.09 491.497 269.012H509.66C509.034 295.944 498.23 321.78 479.283 341.04L466.6 328.2ZM461.589 323.189L462.999 321.623L461.589 314.577L460.65 314.264L461.276 313.011L458.301 312.072L457.675 314.577L457.362 317.709L456.735 318.335L451.255 312.855C462.685 300.954 469.262 285.453 469.888 269.012H488.052C487.425 290.307 478.97 310.506 464.095 325.695L461.589 323.189ZM445.618 340.257L447.34 336.655L446.714 335.09L449.219 332.897V331.645L447.027 330.235L448.75 326.634L451.411 323.189L448.75 320.371H446.714L445.461 318.335C446.557 317.396 447.653 316.456 448.593 315.517L461.433 328.356C456.735 332.897 451.411 336.968 445.618 340.257ZM443.113 304.869L441.39 303.147L442.643 301.424L444.365 297.979L443.739 297.04L444.835 294.535L444.678 292.186L444.052 289.837L442.486 289.367L441.86 290.62L440.92 290.307C442.33 288.271 443.582 285.923 444.678 283.73L446.244 283.104L447.184 281.851L447.653 282.321L448.75 281.068L447.81 279.972L448.593 279.816L450.002 280.442H452.821L454.543 279.503L458.927 278.25L458.145 276.841L457.831 275.118L460.18 276.214L461.12 275.745L460.65 273.866L457.675 274.962L454.543 274.335L452.038 269.325H465.974C465.347 284.826 459.084 299.545 448.436 310.663L446.557 308.784L447.34 306.278L445.931 300.641L443.113 304.869ZM436.536 236.599L449.376 223.759C452.351 227.047 455.013 230.649 457.362 234.407L455.796 234.877L455.952 237.695L460.65 240.67C461.903 243.332 462.842 245.994 463.625 248.812L462.842 250.065L461.12 251.318L460.65 253.98L459.397 254.606L458.458 255.859L457.518 255.389H455.796L456.735 253.98L457.518 250.378L458.771 249.595L455.326 246.307L452.821 247.247L452.194 249.752L450.629 251.474L448.906 250.065L448.28 248.499L449.219 247.873L449.689 248.812L450.472 248.499L450.159 246.933H449.063V247.56L448.28 247.716L444.365 243.019L442.956 241.923L443.426 241.453L444.678 240.983L443.426 240.514C443.426 240.514 442.017 240.827 441.86 240.827L442.643 241.923H440.607C439.355 239.887 438.102 238.165 436.536 236.599ZM438.572 306.591L434.657 305.495L433.404 305.965L431.212 304.243L429.177 303.46C430.273 302.677 431.212 301.894 432.152 301.111L435.44 303.46L437.945 304.712L439.198 305.965L438.572 306.591ZM431.682 246.307L433.248 245.994V245.681L431.682 244.585L432.152 241.14L434.031 239.104C435.283 240.514 436.38 241.923 437.476 243.489L436.849 245.524L435.127 244.272L433.718 244.585L434.344 245.837H434.97L434.187 247.716L433.718 246.933L431.682 246.307ZM453.447 258.834L456.735 257.111L460.024 256.642L460.806 255.076L462.685 253.98L463.468 252.414L464.095 249.752C464.408 250.691 464.564 251.631 464.878 252.57L463.155 257.738V259.46L465.347 255.859C465.817 258.99 466.13 262.279 466.287 265.41H450.315L450.002 264.001L451.881 262.592L452.194 261.652L452.977 261.026L455.169 260.713L455.326 259.773L453.447 258.834ZM457.048 216.243L461.433 216.4L462.529 217.653L462.059 219.532L468.166 223.289L469.418 223.133L477.091 232.058L480.223 230.962C485.233 241.766 487.895 253.667 488.052 265.567H469.888C469.888 260.869 469.262 256.328 468.166 251.788L468.949 250.691L470.045 244.898L469.262 238.791L467.07 231.745L462.059 224.386L463.312 225.012L463.938 224.386L459.867 221.567L459.554 222.507L463.625 228.3L465.974 232.998L467.539 237.695L468.009 240.827L468.792 246.151L467.226 246.307C467.226 246.307 465.504 243.019 464.878 241.61L465.66 240.357L464.095 238.165V236.129L462.999 234.72L461.589 234.877C461.12 233.937 460.65 232.998 460.024 232.215L460.963 232.684L461.276 232.371L460.806 231.275L462.059 230.649L461.589 230.023L459.867 230.649L460.493 227.83L459.397 227.204L458.458 229.396C456.422 226.421 454.23 223.603 451.881 220.941L457.048 216.243ZM480.223 192.912C499.013 212.485 509.504 238.478 509.817 265.567H491.653C491.497 252.101 488.365 238.791 482.258 226.734L482.415 226.421L483.667 227.047L483.981 226.108L480.692 220.471L476.778 215.147L472.237 211.389C470.671 209.51 469.105 207.631 467.383 205.752L480.223 192.912ZM402.871 377.054C463.938 377.054 513.418 327.417 513.262 266.35C513.262 209.667 470.358 162.222 413.988 156.429L413.832 157.055C413.675 158.151 413.362 159.091 413.205 160.03C437.476 162.379 460.18 173.026 477.561 190.094L465.347 202.307L465.817 200.115L464.251 199.332L462.216 199.489L462.685 198.08L461.276 193.069L458.301 189.781L448.75 184.77L447.967 185.71L446.244 186.179C449.532 190.877 451.255 196.514 451.255 202.151V204.343L455.952 210.293L453.76 210.763L455.169 212.955L450.942 217.183L449.219 214.051C448.436 216.243 447.34 218.435 446.088 220.314L447.027 221.097L434.031 233.937C433.248 233.154 432.465 232.528 431.682 231.745C430.429 232.371 429.177 232.841 427.924 233.311L429.02 234.094L428.394 234.72L426.828 235.503L426.202 237.069L425.262 236.129L422.6 237.069L423.383 238.321L425.262 237.852L426.515 238.008L426.671 237.382L427.611 236.912L427.924 236.442L429.646 235.973H430.899L431.682 236.599L426.671 241.766L426.358 241.296L421.034 242.236L419.782 243.489L418.686 243.645L421.974 240.514L420.721 239.887L417.59 243.958L418.529 243.802V245.368L419.625 245.837L419.782 247.403L417.903 247.09L416.024 247.403L411.326 245.054C411.326 245.054 411.013 257.581 411.013 263.844C421.974 267.602 433.718 272.926 433.718 287.019C433.874 292.969 430.743 298.606 425.732 301.894L425.419 302.051L425.106 302.364C420.721 305.339 414.928 306.905 409.917 308.47L409.76 318.335C417.746 322.25 427.298 328.043 426.358 344.328C426.202 348.399 424.636 349.495 423.383 349.808C418.686 350.904 413.832 351.687 409.134 352V355.602C429.803 354.193 449.219 345.581 464.251 331.332L477.091 344.171C435.91 383.943 370.615 383.943 329.277 344.484L342.117 331.645C356.992 345.581 376.252 354.036 396.608 355.602V352C377.191 350.435 359.028 342.449 344.935 328.983L348.224 325.538L352.921 326.008L355.426 323.346L362.003 323.659L362.942 321.31L362.629 320.371C372.337 327.73 383.924 332.428 396.138 333.68V330.079C382.672 328.513 370.145 322.876 360.124 313.638L372.964 300.798C376.095 303.616 379.54 305.965 383.455 307.844C383.768 306.591 384.081 305.495 384.707 304.399C381.419 302.677 378.287 300.641 375.625 298.293L388.465 285.453C390.501 287.019 392.85 288.428 395.198 289.211V285.296C393.632 284.67 392.223 283.73 390.971 282.791L394.572 279.189C393.319 278.876 392.067 278.407 390.814 277.937L388.309 280.442C387.056 279.033 385.96 277.467 385.177 275.901C382.985 274.962 380.793 273.866 378.757 272.456C371.241 267.916 366.7 259.617 366.857 250.691C366.7 244.741 368.423 238.791 372.024 234.094L359.184 221.254C368.579 212.172 380.636 206.379 393.476 204.343V200.742C379.697 202.777 366.7 209.04 356.679 218.749L354.487 216.556C354.017 217.339 353.391 218.435 352.764 219.845L354.174 221.254C342.743 233.311 336.323 249.282 336.01 265.88H317.69C318.003 244.428 326.302 223.916 341.177 208.258L346.971 214.051H347.754C348.85 213.895 350.103 213.581 351.042 213.112L343.683 205.752C347.597 201.994 351.825 198.549 356.366 195.574C356.679 194.635 356.836 193.695 357.305 192.912C358.088 191.66 359.028 190.407 360.124 189.154C353.234 192.912 346.971 197.61 341.334 203.09L328.494 190.251C345.718 173.496 368.11 163.005 392.223 160.5C392.223 160.03 392.067 159.717 392.067 159.717C391.91 158.777 391.753 157.995 391.597 156.898C330.686 163.162 286.687 217.496 293.106 278.25C299.057 334.463 346.345 377.21 402.871 377.054ZM457.205 185.866L456.109 184.144L453.76 182.891L451.881 184.3L454.23 185.553L456.892 187.432L457.205 185.866ZM446.244 237.225L446.401 238.635L449.532 237.695L450.472 235.816L448.28 232.998L449.376 231.275L452.351 233.311L452.821 232.841L452.194 232.371L451.568 231.119L452.821 230.492L451.568 228.926L448.75 230.336L447.81 232.058L447.184 233.624L448.436 235.66L447.967 236.599L446.244 237.225ZM315.028 318.648L315.185 317.865L313.619 314.264L311.74 313.481L315.028 318.648ZM389.092 250.378C389.092 253.51 390.971 255.546 394.259 257.425V256.015L392.223 253.823L393.319 251.788L394.259 251.474C394.102 247.873 394.102 243.958 394.102 243.332H393.946C390.814 245.211 389.248 247.403 389.092 250.378Z" fill="white"/>
<path d="M409.448 329.139C415.085 331.958 420.409 336.029 422.601 343.545C423.54 331.018 416.494 325.694 409.605 321.936L409.448 329.139ZM447.341 202.151C447.341 190.72 439.042 178.194 418.843 173.809C416.807 173.496 414.772 173.183 412.736 173.026C412.736 174.749 412.58 178.663 412.58 178.663C412.58 179.916 412.423 184.457 412.423 185.396C413.676 185.553 415.085 185.71 416.338 185.866C428.081 188.685 432.309 195.418 432.309 201.994C432.309 212.798 423.071 216.87 411.797 220.001L408.039 220.941C404.594 221.724 400.993 222.663 397.548 223.603C396.295 223.916 395.042 224.229 393.79 224.699C381.263 228.457 370.459 234.563 370.459 250.065C370.459 265.567 382.829 271.204 394.886 274.962C394.886 270.577 394.729 266.036 394.573 261.652C389.092 259.147 385.491 255.859 385.491 250.378C385.491 244.898 388.936 241.766 394.103 239.417C395.199 238.948 396.452 238.478 397.861 238.008C400.836 236.912 404.281 236.129 407.726 235.19L411.484 234.25C428.394 230.179 447.498 224.855 447.341 202.151ZM386.43 310.663C386.43 316.926 390.971 320.214 395.512 322.876C395.512 321.78 395.356 312.228 395.356 312.072C395.512 310.193 397.235 308.94 398.8 308.314C401.149 307.218 403.654 306.278 406.16 305.495C407.569 305.026 408.665 304.556 409.918 304.243C419.156 301.424 429.804 297.979 429.804 286.705C429.804 275.431 420.722 270.891 410.701 267.446C410.544 271.047 410.544 276.214 410.387 279.816C414.615 281.382 417.434 283.417 417.434 286.705C417.434 290.777 413.206 292.969 410.074 294.221C408.822 294.691 406.943 295.317 406.316 295.474C403.811 296.257 401.306 297.04 398.8 297.979C397.548 298.449 396.295 298.919 395.042 299.545C390.971 301.737 386.43 305.026 386.43 310.663V310.663ZM392.694 174.749C388.936 176.001 385.178 177.411 381.576 179.29C377.662 180.542 372.025 180.855 366.231 187.119C364.352 189.311 362.63 191.66 360.907 194.008C359.185 196.514 359.028 200.585 357.776 202.62C355.897 205.752 356.366 207.631 356.366 207.631C356.053 209.04 355.27 210.45 354.331 211.546C352.452 213.738 349.633 214.834 346.815 214.364C349.477 215.617 353.078 213.894 353.078 213.894C352.452 215.617 351.982 217.339 351.669 219.062C354.644 212.329 357.306 209.98 358.245 209.197C359.498 209.51 362.16 209.354 367.014 206.535C372.494 203.403 380.793 198.236 383.142 194.948C385.647 191.66 388.936 188.998 392.85 187.589C392.85 182.891 392.694 178.507 392.694 174.749V174.749ZM369.519 195.574L366.701 196.201L370.146 190.564L374.06 190.72L369.519 195.574Z" fill="white"/>
<path d="M404.123 309.877C403.654 310.034 402.244 310.66 401.305 310.973C400.365 311.286 399.269 311.756 399.269 312.069C399.269 312.069 400.209 360.297 400.209 361.236C400.209 371.101 405.22 371.258 405.22 361.236C405.22 360.61 406.316 309.094 406.316 309.094C406.316 309.094 404.906 309.564 404.123 309.877V309.877ZM398.8 293.906C400.365 293.436 401.931 292.81 403.341 292.496C404.437 292.183 405.376 291.87 406.472 291.557C406.472 288.582 407.412 246.618 407.568 239.102C404.28 239.885 400.992 240.824 397.86 241.92C398.017 247.557 398.8 289.365 398.8 293.906ZM403.027 133.722C388.935 133.722 394.885 154.704 395.981 161.593C395.981 161.907 397.077 209.038 397.39 219.842C399.583 219.216 401.618 218.746 403.81 218.276L408.038 217.18C408.195 206.689 409.291 161.75 409.291 161.437C410.23 154.234 417.59 133.722 403.027 133.722" fill="white"/>
</svg>
